<?xml version="1.0" standalone="no"?>
<!DOCTYPE svg PUBLIC "-//W3C//DTD SVG 1.1//EN" "http://www.w3.org/Graphics/SVG/1.1/DTD/svg11.dtd" >
<svg>
<metadata>
Created by FontForge 20090914 at Wed Nov  2 22:30:13 2011
 By www-data
2006 Lukasz Dziedzic published by FSI FontShop International GmbH
</metadata>
<defs>
<font id="Clan-Bold" horiz-adv-x="641" >
  <font-face 
    font-family="Clan-Bold"
    font-weight="700"
    font-stretch="normal"
    units-per-em="1000"
    panose-1="2 1 8 4 4 1 1 2 1 4"
    ascent="787"
    descent="-213"
    x-height="606"
    cap-height="750"
    bbox="-129 -189 1042 916.002"
    underline-thickness="39"
    underline-position="-43"
    unicode-range="U+000D-U+FB02"
  />
<missing-glyph horiz-adv-x="629" 
d="M62 750h505v-750h-505v750zM473 94v562h-317v-562h317z" />
    <glyph glyph-name=".notdef" horiz-adv-x="629" 
d="M62 750h505v-750h-505v750zM473 94v562h-317v-562h317z" />
    <glyph glyph-name=".null" horiz-adv-x="0" 
 />
    <glyph glyph-name=".null" horiz-adv-x="0" 
 />
    <glyph glyph-name="nonmarkingreturn" unicode="&#xd;" horiz-adv-x="266" 
 />
    <glyph glyph-name="space" unicode=" " horiz-adv-x="266" 
 />
    <glyph glyph-name="exclam" unicode="!" horiz-adv-x="303" 
d="M91 218l-24 532h168l-23 -532h-121zM241 66c0 -24 -6.66699 -43 -20 -57s-35.666 -21 -66.999 -21c-30 0 -52 6 -66 18s-21 32 -21 60c0 25.333 7 44.833 21 58.5s36 20.5 66 20.5c31.333 0 53.666 -6.83301 66.999 -20.5s20 -33.167 20 -58.5z" />
    <glyph glyph-name="quotedbl" unicode="&#x22;" horiz-adv-x="430" 
d="M399 766l-27 -273h-100l-22 273h149zM196 766l-27 -273h-100l-22 273h149z" />
    <glyph glyph-name="numbersign" unicode="#" 
d="M149 303l19 140h-113v118h127l24 189h124l-24 -189h85l24 189h121l-24 -189h77v-118h-90l-20 -140h110v-120h-123l-24 -183h-121l23 183h-86l-23 -183h-124l24 183h-81v120h95zM272 303h86l20 140h-86z" />
    <glyph glyph-name="dollar" unicode="$" 
d="M222 -73l9.00293 63.998c-31.333 3.33301 -61 8.83301 -89 16.5s-52 17.167 -72 28.5c4 25.333 7.16699 49 9.5 71s5.83301 46.667 10.5 74c24 -13.333 49.667 -24.5 77 -33.5s55 -16.167 83 -21.5l27 186c-25.333 9.33301 -50.333 20 -75 32
s-46.834 26.833 -66.501 44.5s-35.667 38.834 -48 63.501s-18.5 54.334 -18.5 89.001c0 70.667 22.667 124.667 68 162s113.333 57 204 59l9 64l93 -7l-10 -63c21.333 -3.33301 41.833 -7.33301 61.5 -12s36.167 -9.66699 49.5 -15l-9 -139
c-19.333 5.33301 -39.333 10 -60 14s-41.667 7.33301 -63 10l-25 -166c24 -8 47.667 -17.833 71 -29.5s44.166 -26.167 62.499 -43.5s33.166 -38.5 44.499 -63.5s17 -54.833 17 -89.5c0 -80 -21.167 -139 -63.5 -177s-109.5 -57.667 -201.5 -59l-10 -67zM454.003 199.998
c0 19.333 -8.66699 35.166 -26 47.499s-39.333 23.833 -66 34.5l-25 -162c42 1.33301 72 8.83301 90 22.5s27 32.834 27 57.501zM211.003 547.998c0 -18 8.5 -32.1699 25.5 -42.5029s38.167 -20.166 63.5 -29.499l20 143c-40 -1.33301 -68.167 -8.66602 -84.5 -21.999
s-24.5 -29.666 -24.5 -48.999z" />
    <glyph glyph-name="percent" unicode="%" horiz-adv-x="738" 
d="M342 585c0 -117.333 -52.001 -176 -156.001 -176c-54 0 -93.333 14.667 -118 44s-37 73.333 -37 132c0 60.667 12.333 104.834 37 132.501s64.334 41.5 119.001 41.5c51.333 0 90 -13.333 116 -40s39 -71.334 39 -134.001zM238.999 585
c0 31.333 -4.33301 52.166 -13 62.499s-21.667 15.5 -39 15.5c-18 0 -31.167 -5.16699 -39.5 -15.5s-12.5 -31.166 -12.5 -62.499s4.16699 -52.166 12.5 -62.499s21.5 -15.5 39.5 -15.5c17.333 0 30.333 5.16699 39 15.5s13 31.166 13 62.499zM610.999 644l-408 -617l-88 71
l408 617zM706.999 165c0 -116.667 -51.999 -175 -155.999 -175c-54 0 -93.333 14.5 -118 43.5s-37 72.833 -37 131.5c0 60.667 12.167 105.334 36.5 134.001s64.166 43 119.499 43c51.333 0 90 -13.833 116 -41.5s39 -72.834 39 -135.501zM604 165
c0 30.667 -4.33301 51.167 -13 61.5s-21.667 15.5 -39 15.5c-18 0 -31.167 -5.16699 -39.5 -15.5s-12.5 -30.833 -12.5 -61.5c0 -31.333 4.16699 -52 12.5 -62s21.5 -15 39.5 -15s31.167 5 39.5 15s12.5 30.667 12.5 62z" />
    <glyph glyph-name="ampersand" unicode="&#x26;" horiz-adv-x="719" 
d="M656 -9c-25.333 11.333 -51.4971 24.665 -78.4971 39.998s-53.833 32.333 -80.5 51c-32 -28 -67.833 -51 -107.5 -69s-84.5 -27 -134.5 -27c-41.333 0 -76.333 6 -105 18s-52 27.833 -70 47.5s-31 42.167 -39 67.5s-12 51.333 -12 78c0 24.667 3.5 47.667 10.5 69
s16.5 41 28.5 59s26 34.5 42 49.5s32.667 29.167 50 42.5c-19.333 30 -34.5 58.833 -45.5 86.5s-16.5 52.834 -16.5 75.501c0 24.667 3.66699 48.167 11 70.5s19.5 41.833 36.5 58.5s39.333 29.834 67 39.501s61.5 14.5 101.5 14.5c30.667 0 58.667 -3.66699 84 -11
s47.166 -17.666 65.499 -30.999s32.666 -29.333 42.999 -48s15.5 -39.667 15.5 -63s-5 -44.833 -15 -64.5s-23.167 -38 -39.5 -55s-34.833 -33.167 -55.5 -48.5l-63 -45c19.333 -20.667 40 -41.334 62 -62.001s45.667 -41 71 -61c11.333 20.667 21.166 41.834 29.499 63.501
s15.166 42.834 20.499 63.501h133c-3.33301 -27.333 -11.166 -59 -23.499 -95s-29.5 -72.333 -51.5 -109c20 -12.667 40 -24.334 60 -35.001s40.333 -20.334 61 -29.001zM280.003 130.999c20 0 39 3.16602 57 9.49902s35 15.166 51 26.499c-54 46 -103.333 94.333 -148 145
c-15.333 -15.333 -27.5 -31.166 -36.5 -47.499s-13.5 -34.166 -13.5 -53.499c0 -26.667 8 -46.667 24 -60s38 -20 66 -20zM243.003 578.998c0 -11.333 2.83301 -24.332 8.5 -38.999s13.5 -30.334 23.5 -47.001c26 16.667 47.667 33 65 49s26 33.667 26 53
c0 16.667 -5.33301 29 -16 37s-24 12 -40 12c-20 0 -36.167 -5.5 -48.5 -16.5s-18.5 -27.167 -18.5 -48.5z" />
    <glyph glyph-name="quotesingle" unicode="'" horiz-adv-x="228" 
d="M188 766l-27 -273h-100l-22 273h149z" />
    <glyph glyph-name="parenleft" unicode="(" horiz-adv-x="357" 
d="M355 779c-44 -64.667 -76.333 -135.667 -97 -213s-31 -157.333 -31 -240c0 -83.333 10.667 -163.5 32 -240.5s53 -147.5 95 -211.5l-116 -10c-52 57.333 -91.667 125.833 -119 205.5s-41 165.167 -41 256.5c0 93.333 13.333 178.833 40 256.5s66.667 146.5 120 206.5z
" />
    <glyph glyph-name="parenright" unicode=")" horiz-adv-x="357" 
d="M120 789c52.667 -60 92.5 -128.833 119.5 -206.5s40.5 -163.167 40.5 -256.5c0 -91.333 -13.667 -176.833 -41 -256.5s-67 -148.167 -119 -205.5l-117 10c42.667 64 74.5 134.5 95.5 211.5s31.5 157.167 31.5 240.5c0 82.667 -10.333 162.667 -31 240
s-52.667 148.333 -96 213z" />
    <glyph glyph-name="asterisk" unicode="*" horiz-adv-x="377" 
d="M226 783l11 -103l98 25l26 -74l-98 -42l58 -89l-55 -44l-75 80l-77 -81l-58 42l57 92l-97 42l27 74l99 -25l12 103h72z" />
    <glyph glyph-name="plus" unicode="+" horiz-adv-x="602" 
d="M368 265v-169h-137v169h-169v142h169v169h137v-169h171v-142h-171z" />
    <glyph glyph-name="comma" unicode="," horiz-adv-x="265" 
d="M131 158c30.667 0 53.166 -8.33301 67.499 -25s21.5 -39.667 21.5 -69c0 -13.333 -2.66699 -29 -8 -47s-12.333 -36.667 -21 -56s-18.5 -38.333 -29.5 -57s-21.833 -35 -32.5 -49l-56 14l26 121c-13.333 6 -25.666 16 -36.999 30s-17 30.333 -17 49
c0 25.333 6.5 46.5 19.5 63.5s35.167 25.5 66.5 25.5z" />
    <glyph glyph-name="hyphen" unicode="-" horiz-adv-x="390" 
d="M338 398v-112h-286v112h286z" />
    <glyph glyph-name="period" unicode="." horiz-adv-x="269" 
d="M224 75c0 -27.333 -6.83301 -48.667 -20.5 -64s-36.5 -23 -68.5 -23s-55 6.5 -69 19.5s-21 35.5 -21 67.5c0 28 7 49.333 21 64s37 22 69 22s54.833 -7.33301 68.5 -22s20.5 -36 20.5 -64z" />
    <glyph glyph-name="slash" unicode="/" horiz-adv-x="461" 
d="M466 784l-342 -905h-130l338 905h134z" />
    <glyph glyph-name="zero" unicode="0" 
d="M599 372c0 -67.333 -5.49902 -125 -16.499 -173s-27.833 -87.5 -50.5 -118.5s-51.667 -53.833 -87 -68.5s-77.333 -22 -126 -22c-49.333 0 -91.333 7.33301 -126 22s-63.334 37.5 -86.001 68.5s-39.167 70.5 -49.5 118.5s-15.5 105.667 -15.5 173
c0 70.667 5.16699 130.5 15.5 179.5s26.833 88.833 49.5 119.5s51.667 53 87 67s77.666 21 126.999 21c48.667 0 90.5 -7 125.5 -21s63.833 -36.333 86.5 -67s39.334 -70.5 50.001 -119.5s16 -108.833 16 -179.5zM438.001 374c0 51.333 -2.33301 92.666 -7 123.999
s-11.834 55.666 -21.501 72.999s-21.834 29 -36.501 35s-32 9 -52 9c-20.667 0 -38.5 -3.16699 -53.5 -9.5s-27.333 -18.166 -37 -35.499s-16.834 -41.666 -21.501 -72.999s-7 -72.333 -7 -123c0 -52.667 2.33301 -95 7 -127s11.834 -56.667 21.501 -74s22 -28.833 37 -34.5
s32.833 -8.5 53.5 -8.5c20 0 37.333 3 52 9s26.834 17.833 36.501 35.5s16.834 42.5 21.501 74.5s7 73.667 7 125z" />
    <glyph glyph-name="one" unicode="1" 
d="M163 118h111v433l-137 -79l-17 136l223 142h99v-632h109v-118h-388v118z" />
    <glyph glyph-name="two" unicode="2" 
d="M577 539c0 -34 -7.16895 -66.834 -21.502 -98.501s-34.166 -63.334 -59.499 -95.001s-55.666 -63.667 -90.999 -96s-74.333 -66.166 -117 -101.499v-3h288l-3 -145h-498v108l127.5 124.5c40.333 38.333 75.666 74.333 105.999 108s54.333 65.5 72 95.5s26.5 59 26.5 87
c0 26 -9.16699 47.333 -27.5 64s-48.5 25 -90.5 25c-33.333 0 -64.833 -6.16699 -94.5 -18.5s-58.5 -28.166 -86.5 -47.499l-39 134c31.333 23.333 68 42.333 110 57s88.667 22 140 22c42.667 0 80.167 -5.33301 112.5 -16s59.333 -25.667 81 -45s37.834 -42.5 48.501 -69.5
s16 -56.833 16 -89.5z" />
    <glyph glyph-name="three" unicode="3" 
d="M586 225c0 -36 -5.83301 -68.333 -17.5 -97s-29.334 -53.167 -53.001 -73.5s-53.834 -36 -90.501 -47s-80 -16.5 -130 -16.5c-48 0 -91 5.33301 -129 16s-71 24 -99 40l32 130c29.333 -16 59.5 -28.167 90.5 -36.5s64.5 -12.5 100.5 -12.5
c46 0 80.167 9.16699 102.5 27.5s33.5 43.5 33.5 75.5c0 15.333 -3 29.166 -9 41.499s-16.5 22.666 -31.5 30.999s-35.333 14.833 -61 19.5s-58.167 7 -97.5 7v117c38 0 69.167 2 93.5 6s43.5 10 57.5 18s23.833 17.833 29.5 29.5s8.5 24.834 8.5 39.501
c0 24.667 -9.83301 43.667 -29.5 57s-50.167 20 -91.5 20c-38 0 -72.5 -5.66699 -103.5 -17s-60.167 -27.333 -87.5 -48l-38 129c29.333 22.667 64.833 41.334 106.5 56.001s85.834 22 132.501 22c84 0 149 -18.333 195 -55s69 -87.334 69 -152.001
c0 -38 -8.83301 -70.167 -26.5 -96.5s-43.167 -47.166 -76.5 -62.499v-2c38.667 -14 68.334 -34.5 89.001 -61.5s31 -61.833 31 -104.5z" />
    <glyph glyph-name="four" unicode="4" 
d="M534 142v-142h-152v142h-331l-14 104l301 504h196v-470h77l-4 -138h-73zM394 518l4 81l-2 1l-183 -320h175z" />
    <glyph glyph-name="five" unicode="5" 
d="M583 259c0 -42 -5.33203 -79.499 -15.999 -112.499s-27.334 -61 -50.001 -84s-51.5 -40.667 -86.5 -53s-76.833 -18.5 -125.5 -18.5c-44 0 -85.5 4.5 -124.5 13.5s-74.5 23.167 -106.5 42.5l29 130c30.667 -15.333 60 -27.333 88 -36s60.667 -13 98 -13
c49.333 0 83.666 9.66699 102.999 29s29 48.666 29 87.999c0 35.333 -10.5 60.5 -31.5 75.5s-53.5 22.5 -97.5 22.5c-26 0 -52.5 -2.33301 -79.5 -7s-51.167 -11 -72.5 -19l-57 62l30 371h429l5 -145h-304l-11 -139c35.333 7.33301 71.333 11 108 11
c78.667 0 138.834 -18.167 180.501 -54.5s62.5 -90.833 62.5 -163.5z" />
    <glyph glyph-name="six" unicode="6" 
d="M594 263c0 -93.333 -23.001 -161.998 -69.001 -205.998s-111.333 -66 -196 -66c-46 0 -86.667 6.5 -122 19.5s-65 34.167 -89 63.5s-42.167 67.166 -54.5 113.499s-18.5 103.166 -18.5 170.499c0 132 27.833 231.833 83.5 299.5s138.167 101.5 247.5 101.5
c33.333 0 63.833 -2 91.5 -6s55.167 -11.333 82.5 -22l-11 -140c-24 8.66699 -47.167 14.834 -69.5 18.501s-46.833 5.5 -73.5 5.5c-61.333 0 -106.666 -13.667 -135.999 -41s-47.666 -69.333 -54.999 -126l2 -2c21.333 13.333 44.666 23.666 69.999 30.999s52 11 80 11
c158 0 237 -75 237 -225zM433.999 266.002c0 33.333 -8.5 57.999 -25.5 73.999s-44.5 24 -82.5 24c-9.33301 0 -19.5 -1.16699 -30.5 -3.5s-21.833 -5.5 -32.5 -9.5s-20.5 -9 -29.5 -15s-16.5 -12.333 -22.5 -19c0.666992 -36 3.16699 -66.167 7.5 -90.5
s11.333 -43.666 21 -57.999s21.667 -24.5 36 -30.5s31.833 -9 52.5 -9c34.667 0 61 10.833 79 32.5s27 56.5 27 104.5z" />
    <glyph glyph-name="seven" unicode="7" 
d="M594 610l-281 -610h-185l304 593h-383l7 156h538v-139z" />
    <glyph glyph-name="eight" unicode="8" 
d="M44 220c0 34 8.83203 66.1699 26.499 96.5029s43.167 55.5 76.5 75.5c-22.667 17.333 -41 39.166 -55 65.499s-21 60.166 -21 101.499c0 61.333 20 110 60 146s103.667 54 191 54c86.667 0 149.834 -17.833 189.501 -53.5s59.5 -84.834 59.5 -147.501
c0 -34 -7.16699 -64.333 -21.5 -91s-34.166 -49.667 -59.499 -69c14.667 -8 28.667 -17.333 42 -28s24.666 -23.167 33.999 -37.5s16.833 -30.833 22.5 -49.5s8.5 -40 8.5 -64c0 -152 -91.667 -228 -275 -228c-96 0 -166.333 19.5 -211 58.5s-67 95.833 -67 170.5z
M438.999 207.003c0 16.667 -4 31 -12 43s-19.167 22.5 -33.5 31.5s-31.333 17.167 -51 24.5s-41.5 15 -65.5 23c-21.333 -13.333 -39.333 -29 -54 -47s-22 -39 -22 -63c0 -36 9.83301 -61.667 29.5 -77s51.5 -23 95.5 -23c34 0 61.333 6.66699 82 20s31 36 31 68z
M222.999 551.003c0 -16 3.66602 -29.498 10.999 -40.498s17.333 -20.5 30 -28.5s27.334 -15 44.001 -21s34.334 -11.667 53.001 -17c21.333 13.333 37.5 28.166 48.5 44.499s16.5 35.166 16.5 56.499c0 28 -8.33301 49 -25 63s-43.334 21 -80.001 21
c-65.333 0 -98 -26 -98 -78z" />
    <glyph glyph-name="nine" unicode="9" 
d="M592 405c0 -73.333 -6.66504 -136.169 -19.998 -188.502s-33.166 -95.166 -59.499 -128.499s-59.333 -57.833 -99 -73.5s-85.834 -23.5 -138.501 -23.5c-41.333 0 -76.333 2.83301 -105 8.5s-57 14.5 -85 26.5l23 134c24.667 -10 48.834 -17.5 72.501 -22.5
s49.834 -7.5 78.501 -7.5c58 0 100.333 14.833 127 44.5s42.667 76.5 48 140.5l-2 2c-20.667 -13.333 -43.334 -23.166 -68.001 -29.499s-52 -9.5 -82 -9.5c-40 0 -75 5.5 -105 16.5s-54.833 26.5 -74.5 46.5s-34.334 44.167 -44.001 72.5s-14.5 59.833 -14.5 94.5
c0 38.667 5.33301 73.5 16 104.5s27 57.333 49 79s49.667 38.334 83 50.001s72.666 17.5 117.999 17.5c89.333 0 158.666 -29.333 207.999 -88s74 -147.334 74 -266.001zM430.002 456.997c0 30.667 -2.99902 56.5 -8.99902 77.5s-14.333 38 -25 51s-23.5 22.167 -38.5 27.5
s-31.833 8 -50.5 8c-35.333 0 -62 -8.5 -80 -25.5s-27 -44.167 -27 -81.5c0 -35.333 8.83301 -62 26.5 -80s46.5 -27 86.5 -27c26 0 49.167 4.16699 69.5 12.5s36.166 20.833 47.499 37.5z" />
    <glyph glyph-name="colon" unicode=":" horiz-adv-x="269" 
d="M224 484c0 -27.333 -6.83301 -48.667 -20.5 -64s-36.5 -23 -68.5 -23s-55 6.5 -69 19.5s-21 35.5 -21 67.5c0 28 7 49.333 21 64s37 22 69 22s54.833 -7.33301 68.5 -22s20.5 -36 20.5 -64zM224 74.999c0 -27.333 -6.83301 -48.667 -20.5 -64s-36.5 -23 -68.5 -23
s-55 6.5 -69 19.5s-21 35.5 -21 67.5c0 28 7 49.333 21 64s37 22 69 22s54.833 -7.33301 68.5 -22s20.5 -36 20.5 -64z" />
    <glyph glyph-name="semicolon" unicode=";" horiz-adv-x="271" 
d="M226 484c0 -27.333 -6.83301 -48.667 -20.5 -64s-36.5 -23 -68.5 -23s-55 6.5 -69 19.5s-21 35.5 -21 67.5c0 28 7 49.333 21 64s37 22 69 22s54.833 -7.33301 68.5 -22s20.5 -36 20.5 -64zM135 157.999c30.667 0 53.166 -8.33301 67.499 -25s21.5 -39.667 21.5 -69
c0 -13.333 -2.66699 -29 -8 -47s-12.333 -36.667 -21 -56s-18.5 -38.333 -29.5 -57s-21.833 -35 -32.5 -49l-56 14l26 121c-13.333 6 -25.666 16 -36.999 30s-17 30.333 -17 49c0 25.333 6.5 46.5 19.5 63.5s35.167 25.5 66.5 25.5z" />
    <glyph glyph-name="less" unicode="&#x3c;" horiz-adv-x="602" 
d="M345 365l-73 -32v-3l73 -33l171 -82v-148l-430 225v78l429 229l1 -154z" />
    <glyph glyph-name="equal" unicode="=" horiz-adv-x="602" 
d="M74 369v120h453v-120h-453zM74 165v120h453v-120h-453z" />
    <glyph glyph-name="greater" unicode="&#x3e;" horiz-adv-x="602" 
d="M86 215l172 81l74 33v3l-74 32l-172 81v154l430 -229v-78l-430 -225v148z" />
    <glyph glyph-name="question" unicode="?" horiz-adv-x="508" 
d="M479 570c0 -55.333 -15.1641 -102.166 -45.4971 -140.499s-71.833 -71.5 -124.5 -99.5l-6 -111h-122l-8 169c44 23.333 79.5 47 106.5 71s40.5 52.333 40.5 85c0 23.333 -8.33301 41.166 -25 53.499s-40.334 18.5 -71.001 18.5c-30 0 -57.5 -4.83301 -82.5 -14.5
s-47.167 -23.167 -66.5 -40.5l-56 125c25.333 21.333 58.166 39 98.499 53s83.166 21 128.499 21c78 0 136.333 -17.167 175 -51.5s58 -80.5 58 -138.5zM329.003 66c0 -24 -6.83301 -43 -20.5 -57s-35.834 -21 -66.501 -21s-52.834 6 -66.501 18s-20.5 32 -20.5 60
c0 25.333 6.83301 44.833 20.5 58.5s35.834 20.5 66.501 20.5s52.834 -6.83301 66.501 -20.5s20.5 -33.167 20.5 -58.5z" />
    <glyph glyph-name="at" unicode="@" horiz-adv-x="892" 
d="M451 591c38.667 0 69.3281 -13.3301 91.9951 -39.9971l16 34l83 -6l-44 -269c-2 -12 -3 -24.333 -3 -37c0 -18.667 3.83301 -34.834 11.5 -48.501s22.834 -20.5 45.501 -20.5c16 0 30.833 3.83301 44.5 11.5s25.5 19.667 35.5 36s18 37.5 24 63.5s9 57.333 9 94
c0 43.333 -6 83.5 -18 120.5s-30.167 69 -54.5 96s-54.666 48.167 -90.999 63.5s-78.833 23 -127.5 23c-58 0 -108.667 -9.5 -152 -28.5s-79.333 -45.167 -108 -78.5s-50 -72.333 -64 -117s-21 -92.334 -21 -143.001c0 -53.333 6.83301 -102.833 20.5 -148.5
s34.667 -85 63 -118s64.333 -58.833 108 -77.5s95.167 -28 154.5 -28c38.667 0 73.834 3.33301 105.501 10s60 15 85 25s46.667 20.833 65 32.5s33.5 22.5 45.5 32.5l34 -79c-17.333 -14 -37.333 -27.5 -60 -40.5s-48 -24.333 -76 -34s-58.833 -17.5 -92.5 -23.5
s-69.5 -9 -107.5 -9c-68 0 -129 10.333 -183 31s-99.667 50.5 -137 89.5s-66 86.833 -86 143.5s-30 121.334 -30 194.001c0 60.667 9.5 118.667 28.5 174s47 103.666 84 144.999s82.667 74.333 137 99s116.833 37 187.5 37c58 0 110.5 -9.66699 157.5 -29
s86.833 -46.333 119.5 -81s57.834 -76 75.501 -124s26.5 -100.333 26.5 -157c0 -55.333 -6.16699 -102.333 -18.5 -141s-28.5 -70.334 -48.5 -95.001s-42.833 -42.667 -68.5 -54s-52.167 -17 -79.5 -17c-62 0 -104.333 23.333 -127 70c-16 -20.667 -36 -37.5 -60 -50.5
s-52.333 -19.5 -85 -19.5c-20 0 -38.833 3.83301 -56.5 11.5s-33 19.5 -46 35.5s-23.167 35.833 -30.5 59.5s-11 51.5 -11 83.5c0 39.333 5.83301 77 17.5 113s27.667 67.833 48 95.5s44.333 49.667 72 66s57.834 24.5 90.501 24.5zM503.994 459.003
c-8 16 -22.999 24.001 -44.999 24.001c-16 0 -30.667 -5.5 -44 -16.5s-25 -25.333 -35 -43s-17.667 -38 -23 -61s-8 -46.5 -8 -70.5c0 -24.667 4.5 -43.834 13.5 -57.501s22.5 -20.5 40.5 -20.5c19.333 0 36.166 9.16699 50.499 27.5s23.833 42.5 28.5 72.5z" />
    <glyph glyph-name="A" unicode="A" horiz-adv-x="734" 
d="M498 146h-272l-42 -146h-178l259 750h201l262 -750h-188zM342 544l-75 -257h191l-72 257l-20 79h-3z" />
    <glyph glyph-name="B" unicode="B" horiz-adv-x="691" 
d="M648 218c0 -34 -5.16602 -64.333 -15.499 -91s-26.333 -49.5 -48 -68.5s-49.334 -33.5 -83.001 -43.5s-74.167 -15 -121.5 -15h-309v750h305c82 0 143.333 -17 184 -51s61 -81 61 -141c0 -42 -9.16699 -76.167 -27.5 -102.5s-42.5 -45.833 -72.5 -58.5v-2
c84.667 -23.333 127 -82.333 127 -177zM479.001 231c0 32 -7.66699 54.833 -23 68.5s-41.333 20.5 -78 20.5h-145v-182h149c34 0 58.667 6.5 74 19.5s23 37.5 23 73.5zM460.001 528c0 30 -7 50.833 -21 62.5s-37 17.5 -69 17.5h-136v-163h140c30 0 51.833 6.33301 65.5 19
s20.5 34 20.5 64z" />
    <glyph glyph-name="C" unicode="C" horiz-adv-x="597" 
d="M548 587c-19.333 7.33301 -41.667 13.335 -67 18.002s-52 7 -80 7c-34 0 -62.5 -3.83301 -85.5 -11.5s-41.667 -20.5 -56 -38.5s-24.5 -41.833 -30.5 -71.5s-9 -66.834 -9 -111.501c0 -47.333 3.16699 -86.5 9.5 -117.5s16.666 -56 30.999 -75s33.333 -32.333 57 -40
s52.5 -11.5 86.5 -11.5c28 0 54 2.5 78 7.5s46.667 12.167 68 21.5l17 -137c-24.667 -12 -53.667 -21.833 -87 -29.5s-66.666 -11.5 -99.999 -11.5c-114 0 -198.667 32 -254 96s-83 163.333 -83 298c0 124.667 28 219.667 84 285s144 98 264 98
c14.667 0 30 -0.833008 46 -2.5s31.667 -3.83398 47 -6.50098s30 -6 44 -10s26.333 -8 37 -12z" />
    <glyph glyph-name="D" unicode="D" horiz-adv-x="732" 
d="M689 378c0 -68 -7 -125.834 -21 -173.501s-35 -86.667 -63 -117s-63 -52.5 -105 -66.5s-90.667 -21 -146 -21h-283v750h281c59.333 0 110.333 -7.16699 153 -21.5s77.667 -36.666 105 -66.999s47.333 -69 60 -116s19 -102.833 19 -167.5zM512 378.999
c0 44.667 -2.83301 81.1689 -8.5 109.502s-15 50.666 -28 66.999s-29.667 27.666 -50 33.999s-45.5 9.5 -75.5 9.5h-110v-449h111c28.667 0 53.167 3 73.5 9s37 17.167 50 33.5s22.5 39.5 28.5 69.5s9 69 9 117z" />
    <glyph glyph-name="E" unicode="E" horiz-adv-x="619" 
d="M585 147l-4 -147h-510v750h495l3 -149h-329v-149h277v-134h-277v-171h345z" />
    <glyph glyph-name="F" unicode="F" horiz-adv-x="592" 
d="M240 598v-162h274l-2 -144h-272v-292h-168v750h494l3 -152h-329z" />
    <glyph glyph-name="G" unicode="G" horiz-adv-x="675" 
d="M624 28c-28 -13.333 -62.1689 -23.666 -102.502 -30.999s-81.166 -11 -122.499 -11c-64 0 -118.5 8.16699 -163.5 24.5s-81.833 40.666 -110.5 72.999s-49.5 72.833 -62.5 121.5s-19.5 105 -19.5 169c0 130.667 28.667 228.167 86 292.5s149.333 96.5 276 96.5
c36 0 72.333 -3 109 -9s69.334 -14.333 98.001 -25l-16 -146c-26.667 10 -55.834 17.833 -87.501 23.5s-63.167 8.5 -94.5 8.5c-37.333 0 -68.333 -3.83301 -93 -11.5s-44.5 -20.667 -59.5 -39s-25.667 -42.833 -32 -73.5s-9.5 -69 -9.5 -115
c0 -46.667 3 -85.334 9 -116.001s15.833 -55.167 29.5 -73.5s31.667 -31.166 54 -38.499s49.833 -11 82.5 -11c30.667 0 57.334 3.33301 80.001 10v256h149v-375z" />
    <glyph glyph-name="H" unicode="H" horiz-adv-x="742" 
d="M502 0v307h-262v-307h-169v750h169v-291h262v291h168v-750h-168z" />
    <glyph glyph-name="I" unicode="I" horiz-adv-x="336" 
d="M82 750h172v-750h-172v750z" />
    <glyph glyph-name="J" unicode="J" horiz-adv-x="550" 
d="M479 275c0 -52.667 -6.83301 -97.334 -20.5 -134.001s-33.334 -66.5 -59.001 -89.5s-57 -39.667 -94 -50s-78.5 -15.5 -124.5 -15.5c-31.333 0 -59.166 2.83301 -83.499 8.5s-46.166 13.5 -65.499 23.5l9 142c13.333 -8 29.666 -14.333 48.999 -19s41 -7 65 -7
c50 0 87.833 11.333 113.5 34s38.5 59.334 38.5 110.001v472h172v-475z" />
    <glyph glyph-name="K" unicode="K" horiz-adv-x="720" 
d="M504 0l-185 316h-79v-316h-169v750h169v-297h81l181 297h193l-224 -356l236 -394h-203z" />
    <glyph glyph-name="L" unicode="L" horiz-adv-x="568" 
d="M550 152l-4 -152h-475v750h170v-598h309z" />
    <glyph glyph-name="M" unicode="M" horiz-adv-x="922" 
d="M257 750l174 -438l28 -75h3l28 75l175 438h186v-750h-154v382l2 81l-3 1l-28 -76l-154 -388h-112l-153 387l-28 76l-2 -1l1 -81v-381h-149v750h186z" />
    <glyph glyph-name="N" unicode="N" horiz-adv-x="747" 
d="M558 0l-291 409l-45 67l-2 -1l1 -81v-394h-150v750h144l267 -387l45 -67l2 1l-2 80v373h149v-750h-118z" />
    <glyph glyph-name="O" unicode="O" horiz-adv-x="748" 
d="M704 375c0 -68 -6.16992 -126.5 -18.5029 -175.5s-31.833 -89.333 -58.5 -121s-60.834 -55 -102.501 -70s-91.834 -22.5 -150.501 -22.5c-115.333 0 -199.333 31.5 -252 94.5s-79 161.167 -79 294.5c0 66.667 6.33301 124.334 19 173.001s32.334 88.834 59.001 120.501
s60.834 55.167 102.501 70.5s91.834 23 150.501 23s108.834 -7.66699 150.501 -23s75.834 -38.833 102.501 -70.5s46.167 -71.834 58.5 -120.501s18.5 -106.334 18.5 -173.001zM527.997 375c0 47.333 -2.66504 86.333 -7.99805 117s-14 54.834 -26 72.501
s-27.833 29.834 -47.5 36.501s-43.834 10 -72.501 10s-52.834 -3.33301 -72.501 -10s-35.5 -18.834 -47.5 -36.501s-20.667 -41.834 -26 -72.501s-8 -69.667 -8 -117s2.66699 -86.333 8 -117s14.166 -55 26.499 -73s28.333 -30.5 48 -37.5s43.834 -10.5 72.501 -10.5
c28 0 51.833 3.5 71.5 10.5s35.5 19.5 47.5 37.5s20.667 42.333 26 73s8 69.667 8 117z" />
    <glyph glyph-name="P" unicode="P" horiz-adv-x="664" 
d="M633 493c0 -39.333 -5.50098 -74.5 -16.501 -105.5s-28.167 -57.167 -51.5 -78.5s-53.666 -37.5 -90.999 -48.5s-82 -16.5 -134 -16.5h-100v-244h-169v750h269c104 0 178.833 -21 224.5 -63s68.5 -106.667 68.5 -194zM458.999 494
c0 22.667 -2.16895 41.3311 -6.50195 55.998s-11.166 26.334 -20.499 35.001s-21.5 14.834 -36.5 18.501s-33.5 5.5 -55.5 5.5h-100v-230h100c20.667 0 38.5 1.5 53.5 4.5s27.333 8.83301 37 17.5s16.834 20.5 21.501 35.5s7 34.167 7 57.5z" />
    <glyph glyph-name="Q" unicode="Q" horiz-adv-x="748" 
d="M704 375c0 -106.667 -15.3379 -190 -46.0049 -250s-80.667 -100 -150 -120l140 -109l-190 -48l-105 138c-108 4 -186.667 37.5 -236 100.5s-74 159.167 -74 288.5c0 66.667 6.33301 124.334 19 173.001s32.334 88.834 59.001 120.501s60.834 55.167 102.501 70.5
s91.834 23 150.501 23s108.834 -7.66699 150.501 -23s75.834 -38.833 102.501 -70.5s46.167 -71.834 58.5 -120.501s18.5 -106.334 18.5 -173.001zM527.995 375c0 47.333 -2.66504 86.333 -7.99805 117s-14 54.834 -26 72.501s-27.833 29.834 -47.5 36.501
s-43.834 10 -72.501 10s-52.834 -3.33301 -72.501 -10s-35.5 -18.834 -47.5 -36.501s-20.667 -41.834 -26 -72.501s-8 -69.667 -8 -117s2.66699 -86.333 8 -117s14.166 -55 26.499 -73s28.333 -30.5 48 -37.5s43.834 -10.5 72.501 -10.5c28 0 51.833 3.5 71.5 10.5
s35.5 19.5 47.5 37.5s20.667 42.333 26 73s8 69.667 8 117z" />
    <glyph glyph-name="R" unicode="R" horiz-adv-x="680" 
d="M625 517c0 -52.667 -10.8311 -96.667 -32.498 -132s-52.834 -59.333 -93.501 -72l175 -313h-197l-131 280h-106v-280h-169v750h275c93.333 0 163.166 -18.667 209.499 -56s69.5 -96.333 69.5 -177zM449.002 510c0 38 -7.66699 64.167 -23 78.5s-41.666 21.5 -78.999 21.5
h-107v-204h104c37.333 0 64.166 7.16699 80.499 21.5s24.5 41.833 24.5 82.5z" />
    <glyph glyph-name="S" unicode="S" horiz-adv-x="578" 
d="M549 225c0 -74.667 -24.333 -133.163 -73 -175.496s-117 -63.5 -205 -63.5c-44 0 -85.5 5 -124.5 15s-74.833 23.667 -107.5 41l22 145c33.333 -17.333 67 -30.833 101 -40.5s69.667 -14.5 107 -14.5c41.333 0 71.333 7.16699 90 21.5s28 34.5 28 60.5
c0 19.333 -8.5 35 -25.5 47s-38.333 22.833 -64 32.5l-83 30c-29.667 10.333 -57.334 24.166 -83.001 41.499s-47 39.166 -64 65.499s-25.5 60.5 -25.5 102.5c0 32 5.33301 61.833 16 89.5s27 52 49 73s50.167 37.5 84.5 49.5s75.166 18 122.499 18
c36.667 0 73.5 -3.5 110.5 -10.5s70.167 -16.5 99.5 -28.5l-21 -142c-31.333 10 -62.166 17.833 -92.499 23.5s-59.833 8.5 -88.5 8.5c-23.333 0 -42.5 -1.83301 -57.5 -5.5s-27 -8.83398 -36 -15.501s-15.333 -14.334 -19 -23.001s-5.5 -18 -5.5 -28
c0 -19.333 8.5 -34.833 25.5 -46.5s38.333 -22.167 64 -31.5l83 -29c29.667 -10 57.334 -23.5 83.001 -40.5s47 -39 64 -66s25.5 -61.5 25.5 -103.5z" />
    <glyph glyph-name="T" unicode="T" horiz-adv-x="597" 
d="M383 598v-598h-170v598h-201l4 152h565l4 -152h-202z" />
    <glyph glyph-name="U" unicode="U" horiz-adv-x="726" 
d="M665 268c0 -188 -100.333 -281.999 -301 -281.999c-99.333 0 -174.666 23.167 -225.999 69.5s-77 117.166 -77 212.499v482h168v-480c0 -46 10.667 -79.333 32 -100s55.666 -31 102.999 -31s81.5 10.333 102.5 31s31.5 54 31.5 100v480h167v-482z" />
    <glyph glyph-name="V" unicode="V" horiz-adv-x="710" 
d="M704 750l-255 -750h-188l-255 750h186l145 -507l21 -78h3l20 78l148 507h175z" />
    <glyph glyph-name="W" unicode="W" horiz-adv-x="1036" 
d="M613 750l106 -504l15 -79h3l13 80l94 503h167l-177 -750h-202l-99 502l-14 80h-3l-14 -81l-98 -501h-202l-177 750h175l94 -508l13 -80h3l14 79l106 509h183z" />
    <glyph glyph-name="X" unicode="X" horiz-adv-x="712" 
d="M475 392l218 -392h-191l-109 214l-34 73h-3l-35 -74l-107 -213h-195l213 388l-208 362h200l97 -187l36 -72h3l35 72l97 187h192z" />
    <glyph glyph-name="Y" unicode="Y" horiz-adv-x="698" 
d="M196 750l126 -284l31 -74h3l30 75l121 283h185l-255 -511v-239h-172v239l-259 511h190z" />
    <glyph glyph-name="Z" unicode="Z" horiz-adv-x="618" 
d="M35 0v110l291 422l46 64l-1 2h-328l5 152h528v-123l-284 -410l-46 -63l1 -3h332l-3 -151h-541z" />
    <glyph glyph-name="bracketleft" unicode="[" horiz-adv-x="352" 
d="M78 785h271v-109h-131v-701h131v-106h-271v916z" />
    <glyph glyph-name="backslash" unicode="\" horiz-adv-x="377" 
d="M113 784l294 -905h-126l-295 905h127z" />
    <glyph glyph-name="bracketright" unicode="]" horiz-adv-x="352" 
d="M274 -131h-271v106h131v701h-131v109h271v-916z" />
    <glyph glyph-name="asciicircum" unicode="^" 
d="M321 690l-145 -226h-124l216 340h107l213 -340h-122z" />
    <glyph glyph-name="underscore" unicode="_" horiz-adv-x="416" 
d="M403 -38v-94h-388v94h388z" />
    <glyph glyph-name="grave" unicode="`" horiz-adv-x="405" 
d="M198 656l-120 145h177l60 -145h-117z" />
    <glyph glyph-name="a" unicode="a" horiz-adv-x="581" 
d="M394 58l-3.00098 1.00098c-18.667 -22 -42 -39 -70 -51s-59.333 -18 -94 -18c-57.333 0 -103 16.5 -137 49.5s-51 83.5 -51 151.5c0 28 4.83301 53.667 14.5 77s23.667 43.166 42 59.499s40.833 29.166 67.5 38.499s57.334 14 92.001 14c22.667 0 43.667 -1.5 63 -4.5
s37 -7.16699 53 -12.5v35c0 30.667 -8.66699 53.167 -26 67.5s-47 21.5 -89 21.5c-33.333 0 -62.5 -2.66699 -87.5 -8s-51.5 -13.666 -79.5 -24.999l-13 124c30.667 13.333 63.167 23.333 97.5 30s71.166 10 110.499 10c44.667 0 82.334 -4.83301 113.001 -14.5
s55.5 -24.5 74.5 -44.5s32.667 -45.333 41 -76s12.5 -66.667 12.5 -108v-375h-119zM370.999 260.001c-7.33301 3.33301 -18.332 6.33203 -32.999 8.99902s-32.334 4 -53.001 4c-67.333 0 -101 -26.667 -101 -80c0 -30 8 -50.833 24 -62.5s36.667 -17.5 62 -17.5
c13.333 0 26 1.83301 38 5.5s22.667 8.83398 32 15.501s16.833 14.167 22.5 22.5s8.5 17.5 8.5 27.5v76z" />
    <glyph glyph-name="b" unicode="b" horiz-adv-x="635" 
d="M600 305c0 -55.333 -5.66699 -103.001 -17 -143.001s-27.5 -72.833 -48.5 -98.5s-46.833 -44.667 -77.5 -57s-65.334 -18.5 -104.001 -18.5c-34 0 -64.667 5.66699 -92 17s-50.333 26.333 -69 45l-20 -50h-105v779l155 7v-141l-2 -80l3 -2
c20.667 18.667 43.667 32.334 69 41.001s52 13 80 13c34.667 0 66.167 -5.83301 94.5 -17.5s52.333 -30 72 -55s34.834 -57.333 45.501 -97s16 -87.167 16 -142.5zM440 301.999c0 38 -2.5 68.666 -7.5 91.999s-12.167 41.5 -21.5 54.5s-21 21.667 -35 26
s-30.333 6.5 -49 6.5c-22.667 0 -43 -4.5 -61 -13.5s-32.667 -21.5 -44 -37.5v-265c9.33301 -14.667 22.833 -27 40.5 -37s39.5 -15 65.5 -15c17.333 0 33 2.5 47 7.5s25.833 14.333 35.5 28s17 32.834 22 57.501s7.5 56.667 7.5 96z" />
    <glyph glyph-name="c" unicode="c" horiz-adv-x="493" 
d="M449 458c-15.333 5.33301 -31.998 9.83301 -49.998 13.5s-35.667 5.5 -53 5.5c-28 0 -51.667 -3.16699 -71 -9.5s-34.833 -16.333 -46.5 -30s-20 -31.667 -25 -54s-7.5 -49.5 -7.5 -81.5c0 -65.333 12.667 -111.833 38 -139.5s61.666 -41.5 108.999 -41.5
c40.667 0 77.334 7.66699 110.001 23l11 -121c-18 -11.333 -40.167 -20 -66.5 -26s-55.833 -9 -88.5 -9c-90 0 -158.167 25.667 -204.5 77s-69.5 130.333 -69.5 237c0 50 5.33301 94.5 16 133.5s27.167 71.833 49.5 98.5s51 47 86 61s76.833 21 125.5 21
c25.333 0 51.166 -2.5 77.499 -7.5s49.166 -11.167 68.499 -18.5z" />
    <glyph glyph-name="d" unicode="d" horiz-adv-x="633" 
d="M447 0l-14.999 52.001l-3 1c-18 -21.333 -40.333 -37.5 -67 -48.5s-58.334 -16.5 -95.001 -16.5c-78.667 0 -137 25.667 -175 77s-57 131.666 -57 240.999c0 100 19 177 57 231s95.667 81 173 81c58 0 107.333 -18.333 148 -55l2 2l-2 80v133l155 8v-786h-121z
M413.001 433.001c-9.33301 13.333 -22.832 24.332 -40.499 32.999s-38.167 13 -61.5 13c-21.333 0 -39.333 -3 -54 -9s-26.667 -16 -36 -30s-16 -32.5 -20 -55.5s-6 -51.5 -6 -85.5c0 -35.333 1.83301 -64.833 5.5 -88.5s10 -42.667 19 -57s20.833 -24.5 35.5 -30.5
s33 -9 55 -9c28.667 0 51.167 5.33301 67.5 16s28.166 22.334 35.499 35.001v268z" />
    <glyph glyph-name="e" unicode="e" horiz-adv-x="586" 
d="M337 -11c-104.667 0 -181.166 27.1641 -229.499 81.4971s-72.5 134.5 -72.5 240.5c0 96.667 21.667 171.834 65 225.501s110.666 80.5 201.999 80.5c77.333 0 138.333 -23 183 -69s67 -117 67 -213c0 -11.333 -0.333008 -23.666 -1 -36.999s-1.66699 -25.333 -3 -36h-353
c4 -50.667 18.833 -86.5 44.5 -107.5s64.5 -31.5 116.5 -31.5c56 0 110 10 162 30l17 -125c-25.333 -11.333 -55 -20.666 -89 -27.999s-70.333 -11 -109 -11zM410.001 364.997c-1.33301 44.667 -11.332 76.333 -29.999 95s-44.334 28 -77.001 28
c-37.333 0 -64.333 -9.5 -81 -28.5s-26.667 -50.5 -30 -94.5h218z" />
    <glyph glyph-name="f" unicode="f" horiz-adv-x="405" 
d="M98 0l0.00292969 490.999h-76v115h76v26c0 22.667 4 44.167 12 64.5s20.5 38 37.5 53s38.667 26.833 65 35.5s57.5 13 93.5 13c17.333 0 34.666 -1.16699 51.999 -3.5s32.666 -5.5 45.999 -9.5l-9 -100c-18 4 -37.333 6 -58 6c-30.667 0 -52.334 -5.66699 -65.001 -17
s-19 -26.666 -19 -45.999v-22h129v-115h-129v-491h-155z" />
    <glyph glyph-name="g" unicode="g" horiz-adv-x="587" 
d="M286 244c-26.667 0 -52 2.00195 -76 6.00195c-14 -7.33301 -21 -17 -21 -29c0 -16.667 13.333 -26 40 -28l144 -8c70.667 -4 121 -19 151 -45s45 -62.333 45 -109c0 -30 -5.16699 -57.167 -15.5 -81.5s-26.833 -45 -49.5 -62s-51.5 -30 -86.5 -39
s-77.167 -13.5 -126.5 -13.5c-43.333 0 -80.5 4 -111.5 12s-56.5 19.167 -76.5 33.5s-34.667 31.166 -44 50.499s-14 40.666 -14 63.999c0 18 4 35.5 12 52.5s19.667 32.167 35 45.5c-13.333 9.33301 -24.333 21.333 -33 36s-13 32.334 -13 53.001
c0 20 5.83301 39.333 17.5 58s30.167 34 55.5 46c-20 14.667 -36 33.5 -48 56.5s-18 51.833 -18 86.5c0 27.333 4.16699 52.5 12.5 75.5s21.833 42.833 40.5 59.5s42.667 29.667 72 39s65 14 107 14c26 0 52.333 -2.33301 79 -7s50.667 -13.334 72 -26.001l103 33l32 -74
l-64 -50c6 -18 9 -39.333 9 -64c0 -58.667 -17.833 -104.167 -53.5 -136.5s-94.5 -48.5 -176.5 -48.5zM202 64.002c-16.667 -15.333 -25 -31.6689 -25 -49.002c0 -21.333 8.5 -37.166 25.5 -47.499s45.5 -15.5 85.5 -15.5c28.667 0 52.167 1.33301 70.5 4
s32.833 6.5 43.5 11.5s18 10.833 22 17.5s6 14.334 6 23.001c0 14 -5.5 24.5 -16.5 31.5s-33.5 11.833 -67.5 14.5zM287 499.999c-30 0 -51.001 -5.83203 -63.001 -17.499s-18 -30.834 -18 -57.501c0 -29.333 7 -49 21 -59s32.667 -15 56 -15
c32.667 0 54.834 5.5 66.501 16.5s17.5 30.5 17.5 58.5s-6.16699 47.333 -18.5 58s-32.833 16 -61.5 16z" />
    <glyph glyph-name="h" unicode="h" horiz-adv-x="633" 
d="M422 0v386c0 62.667 -32.333 94 -97 94c-22.667 0 -43.167 -4.33301 -61.5 -13s-32.166 -19.667 -41.499 -33v-434h-155v778l155 8v-138l-2 -80l3 -2c22.667 19.333 47.167 32.833 73.5 40.5s52.166 11.5 77.499 11.5c64.667 0 114.667 -20.333 150 -61
s53 -97.667 53 -171v-386h-155z" />
    <glyph glyph-name="i" unicode="i" horiz-adv-x="319" 
d="M80 0v602l159 7v-609h-159zM248 737c0 -22 -7 -38.501 -21 -49.501s-36.333 -16.5 -67 -16.5c-30 0 -52.333 4.83301 -67 14.5s-22 26.834 -22 51.501c0 44.667 29.667 67 89 67c30.667 0 53 -5.66699 67 -17s21 -28 21 -50z" />
    <glyph glyph-name="j" unicode="j" horiz-adv-x="319" 
d="M239 5c0 -32.667 -4.66895 -59.833 -14.002 -81.5s-21.833 -39 -37.5 -52s-34 -22.333 -55 -28s-43.5 -8.5 -67.5 -8.5c-14.667 0 -29.167 1.33301 -43.5 4s-27.166 6 -38.499 10l7 109c12.667 -4 25 -6 37 -6c16.667 0 30.334 4.5 41.001 13.5s16 23.5 16 43.5v593
l155 7v-604zM246.998 738.001c0 -22.667 -7 -39.5 -21 -50.5s-36.333 -16.5 -67 -16.5c-30 0 -52.167 5 -66.5 15s-21.5 27.333 -21.5 52c0 44.667 29.333 67 88 67c30.667 0 53 -5.83301 67 -17.5s21 -28.167 21 -49.5z" />
    <glyph glyph-name="k" unicode="k" horiz-adv-x="617" 
d="M222 387h79l126 219h172l-165 -275l171 -331h-175l-129 261h-79v-261h-155v779l155 7v-399z" />
    <glyph glyph-name="l" unicode="l" horiz-adv-x="305" 
d="M74 0v779l157 7v-786h-157z" />
    <glyph glyph-name="m" unicode="m" horiz-adv-x="943" 
d="M732 0v387c0 32 -8 55.5 -24 70.5s-38.333 22.5 -67 22.5c-26 0 -47.333 -7.16699 -64 -21.5s-25 -36.5 -25 -66.5v-392h-155v392c0 31.333 -7.83301 53.833 -23.5 67.5s-37.167 20.5 -64.5 20.5c-18.667 0 -36.167 -4.16699 -52.5 -12.5s-29.166 -19.5 -38.499 -33.5
v-434h-156v602l112 8l25 -57c21.333 20 45.333 35.667 72 47s54 17 82 17c75.333 0 128.666 -27 159.999 -81c20.667 28 45.5 48.5 74.5 61.5s60.833 19.5 95.5 19.5c30 0 57.5 -4.66699 82.5 -14s46.5 -23.5 64.5 -42.5s32 -42.667 42 -71s15 -61.5 15 -99.5v-390h-155z
" />
    <glyph glyph-name="n" unicode="n" horiz-adv-x="629" 
d="M418 0v386.001c0 34 -8.33301 58.167 -25 72.5s-41 21.5 -73 21.5c-19.333 0 -38.5 -4 -57.5 -12s-33.833 -19.333 -44.5 -34v-434h-156v603l112 7l23 -52c22.667 19.333 48.167 34.166 76.5 44.499s58.5 15.5 90.5 15.5c64.667 0 115.667 -19.667 153 -59
s56 -97 56 -173v-386h-155z" />
    <glyph glyph-name="o" unicode="o" horiz-adv-x="624" 
d="M590 301c0 -56 -5.33301 -103.833 -16 -143.5s-27.334 -72.167 -50.001 -97.5s-51.5 -44 -86.5 -56s-76.5 -18 -124.5 -18s-89.5 6 -124.5 18s-63.833 30.667 -86.5 56s-39.5 57.833 -50.5 97.5s-16.5 87.5 -16.5 143.5c0 110.667 22.333 191 67 241s115 75 211 75
c48 0 89.5 -6 124.5 -18s63.833 -30.833 86.5 -56.5s39.334 -58.5 50.001 -98.5s16 -87.667 16 -143zM196 301c0 -37.333 2.16797 -68.167 6.50098 -92.5s11.166 -43.5 20.499 -57.5s21.333 -23.833 36 -29.5s32.667 -8.5 54 -8.5s39.333 2.83301 54 8.5
s26.667 15.667 36 30s16 33.5 20 57.5s6 54.667 6 92c0 36.667 -2 67.167 -6 91.5s-10.667 43.666 -20 57.999s-21.333 24.333 -36 30s-32.667 8.5 -54 8.5s-39.5 -2.83301 -54.5 -8.5s-27.167 -15.667 -36.5 -30s-16 -33.666 -20 -57.999s-6 -54.833 -6 -91.5z" />
    <glyph glyph-name="p" unicode="p" horiz-adv-x="630" 
d="M596 304c0 -53.333 -5.66895 -99.667 -17.002 -139s-27.166 -72 -47.499 -98s-45 -45.333 -74 -58s-61.167 -19 -96.5 -19c-27.333 0 -52.833 3.33301 -76.5 10s-45.167 19.667 -64.5 39l-3 -1l2 -81v-111h-157v756l109 7l30 -53c21.333 19.333 46 34.333 74 45
s58 16 90 16c37.333 0 70.333 -5.5 99 -16.5s52.834 -28.667 72.501 -53s34.5 -56.5 44.5 -96.5s15 -89 15 -147zM434.998 304.999c0 34.667 -2.16797 63.333 -6.50098 86s-11 40.5 -20 53.5s-20.667 22 -35 27s-31.166 7.5 -50.499 7.5
c-22.667 0 -42.834 -4.33301 -60.501 -13s-32.167 -20.667 -43.5 -36v-260c9.33301 -14.667 22.333 -27 39 -37s37.334 -15 62.001 -15c17.333 0 33 2.5 47 7.5s26 14.333 36 28s17.833 32.667 23.5 57s8.5 55.833 8.5 94.5z" />
    <glyph glyph-name="q" unicode="q" horiz-adv-x="631" 
d="M412 -155v107l2 81l-2 1c-36.667 -28.667 -83.334 -43 -140.001 -43c-35.333 0 -67.5 6 -96.5 18s-54 30.5 -75 55.5s-37.167 57 -48.5 96s-17 85.833 -17 140.5c0 104 20 182.667 60 236s100.333 80 181 80c72.667 0 130.334 -22 173.001 -66l18 55l100 -1v-759z
M412 432c-8 13.333 -21 24.333 -39 33s-39 13 -63 13c-21.333 0 -39.333 -2.5 -54 -7.5s-26.5 -14.167 -35.5 -27.5s-15.333 -31.5 -19 -54.5s-5.5 -52.167 -5.5 -87.5c0 -34 2.16699 -62.5 6.5 -85.5s11.166 -41.5 20.499 -55.5s21.333 -24 36 -30s32.334 -9 53.001 -9
c28 0 50.667 5.33301 68 16s28 22.667 32 36v259z" />
    <glyph glyph-name="r" unicode="r" horiz-adv-x="458" 
d="M62 0l0.00195312 602.001l124 6l14 -101h3c19.333 36.667 43.166 64 71.499 82s59.833 27 94.5 27c13.333 0 25.666 -0.833008 36.999 -2.5s21 -3.83398 29 -6.50098l-10 -153c-9.33301 3.33301 -19.666 5.83301 -30.999 7.5s-23 2.5 -35 2.5
c-40.667 0 -74.334 -14 -101.001 -42s-40 -67.333 -40 -118v-304h-156z" />
    <glyph glyph-name="s" unicode="s" horiz-adv-x="497" 
d="M465 190c0 -30 -4.33496 -57.498 -13.002 -82.498s-22.334 -46.333 -41.001 -64s-42.667 -31.334 -72 -41.001s-64.333 -14.5 -105 -14.5c-36.667 0 -71.167 3.5 -103.5 10.5s-61.166 17.5 -86.499 31.5l16 128c25.333 -14.667 54 -25.5 86 -32.5s61 -10.5 87 -10.5
c31.333 0 53.833 5.66699 67.5 17s20.5 26 20.5 44c0 16 -7 28.5 -21 37.5s-31.333 17 -52 24l-67.5 22c-24.333 7.66699 -46.833 18.167 -67.5 31.5s-38 30.833 -52 52.5s-21 50.167 -21 85.5c0 27.333 4.66699 52.5 14 75.5s23.5 42.667 42.5 59
s42.833 29.166 71.5 38.499s62.667 14 102 14c30.667 0 60.667 -2.83301 90 -8.5s56.666 -13.834 81.999 -24.501l-13 -127c-25.333 10.667 -53 18.5 -83 23.5s-56.333 7.5 -79 7.5c-25.333 0 -44.833 -4.66699 -58.5 -14s-20.5 -21.666 -20.5 -36.999
s6.83301 -27.166 20.5 -35.499s30.834 -15.833 51.501 -22.5l66.5 -21c23.667 -7.33301 45.834 -17.5 66.501 -30.5s37.834 -30.333 51.501 -52s20.5 -49.834 20.5 -84.501z" />
    <glyph glyph-name="t" unicode="t" horiz-adv-x="403" 
d="M245 490l0.00292969 -310c0 -23.333 6 -40.333 18 -51s30 -16 54 -16c8 0 16.667 0.666992 26 2s16.666 3 21.999 5l9 -113c-10.667 -4.66699 -25.334 -8.66699 -44.001 -12s-38.667 -5 -60 -5c-60.667 0 -105.834 16.333 -135.501 49s-44.5 78 -44.5 136v315h-68v116h75
l26 137l122 11v-148h135v-116h-135z" />
    <glyph glyph-name="u" unicode="u" horiz-adv-x="622" 
d="M566 214c0 -74 -20.8311 -130.001 -62.498 -168.001s-105.834 -57 -192.501 -57s-150.834 19.333 -192.501 58s-62.5 94.334 -62.5 167.001v392h155v-389c0 -60.667 33.333 -91 100 -91s100 30.333 100 91v389h155v-392z" />
    <glyph glyph-name="v" unicode="v" horiz-adv-x="652" 
d="M636 606l-220 -606h-180l-220 606h170l116 -388l22 -78h3l21 78l118 388h170z" />
    <glyph glyph-name="w" unicode="w" horiz-adv-x="890" 
d="M529 606l81 -397l15 -79h3l12 80l68 396h152l-136 -606h-190l-68 362l-13 81h-3l-14 -81l-71 -362h-190l-145 606h156l73 -395l14 -80h3l13 80l78 395h162z" />
    <glyph glyph-name="x" unicode="x" horiz-adv-x="624" 
d="M342 161l-34 73h-3l-34 -74l-78 -160h-171l181 306l-178 300h180l76 -153l34 -73h3l33 73l75 153h172l-170 -296l175 -310h-180z" />
    <glyph glyph-name="y" unicode="y" horiz-adv-x="653" 
d="M181 -52c21.333 0 39.666 3.83301 54.999 11.5s28 23.167 38 46.5l3 8l-261 592h177l132 -370l26 -76h3l19 78l99 368h165l-207 -598c-21.333 -62.667 -50.5 -107.667 -87.5 -135s-81.5 -41 -133.5 -41c-18.667 0 -36.667 1.5 -54 4.5s-33.666 7.83301 -48.999 14.5
l12 110c21.333 -8.66699 42.333 -13 63 -13z" />
    <glyph glyph-name="z" unicode="z" horiz-adv-x="538" 
d="M269 194l-48 -62l1 -3h278l-4 -129h-454v109l222 303l48 63l-1 2h-261l5 129h436v-108z" />
    <glyph glyph-name="braceleft" unicode="{" horiz-adv-x="386" 
d="M276 438c0 -24 -5 -45.333 -15 -64s-24 -33.667 -42 -45c18 -11.333 32 -26.333 42 -45s15 -40 15 -64c0 -15.333 -0.666992 -29.666 -2 -42.999l-4 -39l-4 -37.5c-1.33301 -12.333 -2 -25.5 -2 -39.5c0 -22 6.83301 -40.667 20.5 -56s35.5 -23 65.5 -23h33v-116h-26
c-42.667 0 -78.834 4 -108.501 12s-53.667 19.5 -72 34.5s-31.5 33.333 -39.5 55s-12 46.167 -12 73.5c0 31.333 2.5 62.166 7.5 92.499s7.5 59.833 7.5 88.5c0 20 -5.83301 36.5 -17.5 49.5s-26.5 21.5 -44.5 25.5v64c18 4 32.833 12.5 44.5 25.5s17.5 29.5 17.5 49.5
c0 28.667 -2.5 58.167 -7.5 88.5s-7.5 61.166 -7.5 92.499c0 27.333 4 51.833 12 73.5s21.167 40 39.5 55s42.333 26.5 72 34.5s65.834 12 108.501 12h26v-116h-33c-30 0 -51.833 -7.66699 -65.5 -23s-20.5 -34 -20.5 -56c0 -14 0.666992 -27.333 2 -40l4 -37.5l4 -38.5
c1.33301 -13.333 2 -27.666 2 -42.999z" />
    <glyph glyph-name="bar" unicode="|" horiz-adv-x="290" 
d="M85 807h120v-985h-120v985z" />
    <glyph glyph-name="braceright" unicode="}" horiz-adv-x="386" 
d="M111 220c0 48.667 18.667 85.001 56 109.001c-18 11.333 -31.833 26.333 -41.5 45s-14.5 40 -14.5 64c0 15.333 0.5 29.666 1.5 42.999s2.33301 26.166 4 38.499s3 24.833 4 37.5s1.5 26 1.5 40c0 22 -6.83301 40.667 -20.5 56s-35.5 23 -65.5 23h-33v116h26
c42.667 0 78.834 -4 108.501 -12s53.667 -19.5 72 -34.5s31.5 -33.333 39.5 -55s12 -46.167 12 -73.5c0 -31.333 -2.5 -62.166 -7.5 -92.499s-7.5 -59.833 -7.5 -88.5c0 -20 5.83301 -36.5 17.5 -49.5s26.834 -21.5 45.501 -25.5v-64
c-18.667 -4 -33.834 -12.5 -45.501 -25.5s-17.5 -29.5 -17.5 -49.5c0 -28.667 2.5 -58.167 7.5 -88.5s7.5 -61.166 7.5 -92.499c0 -27.333 -4 -51.833 -12 -73.5s-21.167 -40 -39.5 -55s-42.333 -26.5 -72 -34.5s-65.834 -12 -108.501 -12h-26v116h33
c30 0 51.833 7.66699 65.5 23s20.5 34 20.5 56c0 14 -0.5 27.167 -1.5 39.5s-2.33301 24.833 -4 37.5s-3 25.667 -4 39s-1.5 27.666 -1.5 42.999z" />
    <glyph glyph-name="asciitilde" unicode="~" 
d="M72 589c6 127.333 54.666 191.001 145.999 191.001c19.333 0 38 -3.33301 56 -10s35.333 -14.167 52 -22.5s32.834 -15.833 48.501 -22.5s31.167 -10 46.5 -10c17.333 0 30.666 5.16699 39.999 15.5s15.666 22.166 18.999 35.499h89
c-3.33301 -64 -17.5 -111.667 -42.5 -143s-59.5 -47 -103.5 -47c-20 0 -38.833 3.33301 -56.5 10s-34.667 14.167 -51 22.5s-32.166 15.833 -47.499 22.5s-30.333 10 -45 10c-17.333 0 -31.166 -5 -41.499 -15s-17.5 -22 -21.5 -36z" />
    <glyph glyph-name="uni00A0" unicode="&#xa0;" horiz-adv-x="266" 
 />
    <glyph glyph-name="exclamdown" unicode="&#xa1;" horiz-adv-x="302" 
d="M215 439l18 -572h-164l19 572h127zM62 582c0 24 6.83301 42.833 20.5 56.5s35.834 20.5 66.501 20.5c30 0 52 -5.83301 66 -17.5s21 -31.5 21 -59.5c0 -25.333 -7 -44.833 -21 -58.5s-36 -20.5 -66 -20.5c-30.667 0 -52.834 6.83301 -66.501 20.5
s-20.5 33.167 -20.5 58.5z" />
    <glyph glyph-name="cent" unicode="&#xa2;" 
d="M504 458c-15.333 5.33301 -31.998 9.83301 -49.998 13.5s-35.667 5.5 -53 5.5c-28 0 -51.667 -3.16699 -71 -9.5s-34.833 -16.333 -46.5 -30s-20 -31.667 -25 -54s-7.5 -49.5 -7.5 -81.5c0 -65.333 12.667 -111.833 38 -139.5s61.666 -41.5 108.999 -41.5
c40.667 0 77.334 7.66699 110.001 23l11 -121c-28.667 -18 -68 -29 -118 -33l-7 -118h-120l9 125c-64 13.333 -112.167 45.166 -144.5 95.499s-48.5 120.166 -48.5 209.499c0 90.667 17.333 162.334 52 215.001s90.667 84.334 168 95.001l9 118h120l-9 -119
c15.333 -2.66699 30.166 -5.66699 44.499 -9s27.166 -7.33301 38.499 -12z" />
    <glyph glyph-name="sterling" unicode="&#xa3;" 
d="M65 432h47.998c-6 17.333 -11.167 34.833 -15.5 52.5s-6.5 36.5 -6.5 56.5c0 29.333 5 57.333 15 84s26.333 50.334 49 71.001s52.5 37 89.5 49s82.5 18 136.5 18c38.667 0 72.834 -3 102.501 -9s56.167 -13.667 79.5 -23l-19 -139
c-19.333 7.33301 -41.5 13.333 -66.5 18s-50.833 7 -77.5 7c-52 0 -88.833 -9.16699 -110.5 -27.5s-32.5 -41.5 -32.5 -69.5c0 -15.333 1.5 -30.166 4.5 -44.499s6.83301 -28.833 11.5 -43.5h242v-122h-212c2 -14 3 -28.333 3 -43c0 -30 -6 -56 -18 -78
s-28.667 -39.667 -50 -53l2 -3c28 7.33301 57.333 12.5 88 15.5s62 4.5 94 4.5s62 -1.16699 90 -3.5s56 -5.16602 84 -8.49902c0 -0.666992 -0.166992 -4.66699 -0.5 -12s-0.833008 -16.333 -1.5 -27s-1.16699 -22.167 -1.5 -34.5s-0.833008 -23.833 -1.5 -34.5
s-1.33398 -19.834 -2.00098 -27.501s-1 -11.834 -1 -12.501c-42 4.66699 -82.333 8.16699 -121 10.5s-78.667 3.5 -120 3.5c-23.333 0 -46.166 -0.166992 -68.499 -0.5s-44.666 -1 -66.999 -2s-45.5 -2.16699 -69.5 -3.5s-49.333 -3.33301 -76 -6l-8 144
c29.333 6 52.333 20.5 69 43.5s25 48.5 25 76.5c0 9.33301 -0.333008 18.166 -1 26.499s-1.66699 16.5 -3 24.5h-76z" />
    <glyph glyph-name="currency" unicode="&#xa4;" 
d="M127 362c0 34.667 7.66895 65.667 23.002 93l-68 71l78 84l73 -74c13.333 6.66699 27.166 11.834 41.499 15.501s29.166 5.5 44.499 5.5s30.5 -1.83301 45.5 -5.5s29.167 -8.83398 42.5 -15.501l73 74l79 -84l-70 -72c7.33301 -13.333 13 -27.833 17 -43.5
s6 -31.834 6 -48.501c0 -29.333 -6.33301 -57.666 -19 -84.999l65 -67l-79 -84l-64 65c-29.333 -16.667 -61.333 -25 -96 -25c-34 0 -65.667 8.33301 -95 25l-64 -65l-79 84l65 67c-12.667 26.667 -19 55 -19 85zM226.002 364c0 -25.333 9 -46.5 27 -63.5s40 -25.5 66 -25.5
s48 8.5 66 25.5s27 38.167 27 63.5c0 24.667 -9 45.667 -27 63s-40 26 -66 26s-48 -8.66699 -66 -26s-27 -38.333 -27 -63z" />
    <glyph glyph-name="yen" unicode="&#xa5;" 
d="M194 359l-175 391h184l95 -321l22 -78h3l21 78l95 321h181l-170 -391h90v-92h-128v-39h128v-93h-128v-135h-179v135h-125v93h125v39h-125v92h86z" />
    <glyph glyph-name="brokenbar" unicode="&#xa6;" horiz-adv-x="290" 
d="M85 807h120v-434h-120v434zM85 266h120v-431h-120v431z" />
    <glyph glyph-name="section" unicode="&#xa7;" horiz-adv-x="569" 
d="M45 329c0 28 6.66699 55.335 20 82.002s34.333 49 63 67c-19.333 15.333 -35.333 32.833 -48 52.5s-19 42.5 -19 68.5c0 58.667 20.667 103.334 62 134.001s101.333 46 180 46c16 0 33 -0.833008 51 -2.5s35.833 -4.33398 53.5 -8.00098s34.5 -8 50.5 -13
s30.667 -10.833 44 -17.5l-11 -117c-32 12.667 -62.333 21.834 -91 27.501s-58 8.5 -88 8.5s-52.5 -4.5 -67.5 -13.5s-22.5 -21.5 -22.5 -37.5c0 -14.667 7.83301 -27.334 23.5 -38.001s35.167 -21.167 58.5 -31.5l75.5 -33.5c27 -12 52.167 -26.833 75.5 -44.5
s42.833 -38.834 58.5 -63.501s23.5 -54.667 23.5 -90c0 -28 -6.83301 -55.5 -20.5 -82.5s-34.834 -49.5 -63.501 -67.5c20 -15.333 36.333 -32.833 49 -52.5s19 -42.167 19 -67.5c0 -58.667 -20.667 -103.334 -62 -134.001s-101.333 -46 -180 -46
c-16 0 -33 0.833008 -51 2.5s-35.667 4.33398 -53 8.00098s-34.166 8 -50.499 13s-30.833 10.833 -43.5 17.5l11 117c31.333 -12.667 61.333 -21.834 90 -27.501s58 -8.5 88 -8.5c60 0 90 17.333 90 52c0 14.667 -7.83301 27.167 -23.5 37.5s-35.167 20.666 -58.5 30.999
l-75.5 33.5c-27 12 -52.167 26.833 -75.5 44.5s-42.833 38.834 -58.5 63.501s-23.5 54.667 -23.5 90zM387 289.002c0 12.667 -3.66699 24.1689 -11 34.502s-17.166 20 -29.499 29s-26.5 17.833 -42.5 26.5l-50 26l-10 5c-32.667 -14.667 -49 -36.334 -49 -65.001
c0 -12.667 3.66699 -24.334 11 -35.001s17.166 -20.5 29.499 -29.5s26.5 -17.833 42.5 -26.5l50 -26l10 -5c32.667 15.333 49 37.333 49 66z" />
    <glyph glyph-name="dieresis" unicode="&#xa8;" horiz-adv-x="405" 
d="M178 738c0 -21.333 -5.16699 -37.501 -15.5 -48.501s-27.166 -16.5 -50.499 -16.5c-22 0 -38.333 5 -49 15s-16 26.667 -16 50c0 44 21.667 66 65 66c23.333 0 40.166 -5.66699 50.499 -17s15.5 -27.666 15.5 -48.999zM360 737.999c0 -21.333 -5 -37.501 -15 -48.501
s-26.667 -16.5 -50 -16.5c-22 0 -38.5 5 -49.5 15s-16.5 26.667 -16.5 50c0 44 22 66 66 66c23.333 0 40 -5.66699 50 -17s15 -27.666 15 -48.999z" />
    <glyph glyph-name="copyright" unicode="&#xa9;" horiz-adv-x="871" 
d="M44 378c0 54 10.333 104.667 31 152s48.667 88.833 84 124.5s76.833 63.667 124.5 84s98.5 30.5 152.5 30.5s104.667 -10.167 152 -30.5s88.833 -48.333 124.5 -84s63.667 -77.167 84 -124.5s30.5 -98 30.5 -152s-10.167 -104.667 -30.5 -152s-48.333 -88.833 -84 -124.5
s-77.167 -63.667 -124.5 -84s-98 -30.5 -152 -30.5s-104.833 10.167 -152.5 30.5s-89.167 48.333 -124.5 84s-63.333 77.167 -84 124.5s-31 98 -31 152zM122 378c0 -42.667 8.16699 -82.832 24.5 -120.499s38.5 -70.667 66.5 -99s61.167 -50.833 99.5 -67.5
s79.5 -25 123.5 -25s85 8.16699 123 24.5s71.333 38.666 100 66.999s51.167 61.333 67.5 99s24.5 78.167 24.5 121.5c0 42 -8.16699 81.667 -24.5 119s-38.833 70 -67.5 98s-62 50.167 -100 66.5s-79 24.5 -123 24.5s-85.167 -8.16699 -123.5 -24.5s-71.5 -38.5 -99.5 -66.5
s-50.167 -60.667 -66.5 -98s-24.5 -77 -24.5 -119zM594 467.002c-15.333 8 -33.335 14.668 -54.002 20.001s-40.334 8 -59.001 8c-46 0 -80.833 -11 -104.5 -33s-35.5 -50 -35.5 -84c0 -36.667 12.333 -65.667 37 -87s60 -32 106 -32c22 0 43.333 3 64 9
s37.667 12.667 51 20l14 -105c-9.33301 -8 -20.166 -15.833 -32.499 -23.5s-26 -14.667 -41 -21s-30.833 -11.333 -47.5 -15s-33.667 -5.5 -51 -5.5c-37.333 0 -71.666 6.66699 -102.999 20s-58.333 31.666 -81 54.999s-40.334 50.833 -53.001 82.5s-19 65.5 -19 101.5
c0 33.333 5.83301 65.333 17.5 96s28.667 57.667 51 81s49.333 42 81 56s67.5 21 107.5 21c34.667 0 65.834 -5.33301 93.501 -16s50.834 -23.667 69.501 -39z" />
    <glyph glyph-name="ordfeminine" unicode="&#xaa;" horiz-adv-x="444" 
d="M290 378l-3.00391 1.00195c-26.667 -32.667 -64.667 -49 -114 -49c-43.333 0 -77.666 13.167 -102.999 39.5s-38 66.5 -38 120.5c0 44.667 14.333 81 43 109s68 42 118 42c30 0 56 -4 78 -12v23c0 19.333 -6 33.833 -18 43.5s-33.667 14.5 -65 14.5
c-22.667 0 -42.667 -1.83301 -60 -5.5s-36.666 -9.83398 -57.999 -18.501l-10 108c23.333 9.33301 48 16.666 74 21.999s53.333 8 82 8c34.667 0 63.834 -3.83301 87.501 -11.5s42.834 -19.334 57.501 -35.001s25.167 -35.667 31.5 -60s9.5 -53.166 9.5 -86.499v-294h-102z
M270.996 539.002c-5.33301 2 -12.332 3.83301 -20.999 5.5s-19.334 2.5 -32.001 2.5c-41.333 0 -62 -18.333 -62 -55c0 -20 4.83301 -34 14.5 -42s22.5 -12 38.5 -12c16.667 0 31.167 4.5 43.5 13.5s18.5 20.167 18.5 33.5v54z" />
    <glyph glyph-name="guillemotleft" unicode="&#xab;" horiz-adv-x="651" 
d="M428 320l160 -101v-120l-313 216v11l313 216v-120zM175 320l160 -101v-120l-313 216v11l313 216v-120z" />
    <glyph glyph-name="logicalnot" unicode="&#xac;" 
d="M96 271v134h449v-283h-126v149h-323z" />
    <glyph glyph-name="uni00AD" unicode="&#xad;" horiz-adv-x="390" 
d="M338 398v-112h-286v112h286z" />
    <glyph glyph-name="registered" unicode="&#xae;" horiz-adv-x="440" 
d="M29 640c0 26.667 5 52 15 76s23.833 44.667 41.5 62s38.167 31.166 61.5 41.499s48.333 15.5 75 15.5c26 0 50.5 -5.16699 73.5 -15.5s43.167 -24.166 60.5 -41.499s31 -38 41 -62s15 -49.333 15 -76c0 -26 -5 -50.667 -15 -74s-23.667 -43.833 -41 -61.5
s-37.5 -31.5 -60.5 -41.5s-47.5 -15 -73.5 -15c-26.667 0 -51.667 5 -75 15s-43.833 23.833 -61.5 41.5s-31.5 38.167 -41.5 61.5s-15 48 -15 74zM72 641c0 -20 3.83301 -39.167 11.5 -57.5s18.334 -34.166 32.001 -47.499s29.5 -24 47.5 -32s37.333 -12 58 -12s40 4 58 12
s33.667 18.667 47 32s24 29.166 32 47.499s12 37.5 12 57.5c0 20.667 -4 40 -12 58s-18.667 33.667 -32 47s-29 24 -47 32s-37.333 12 -58 12s-40 -4 -58 -12s-33.833 -18.667 -47.5 -32s-24.334 -29 -32.001 -47s-11.5 -37.333 -11.5 -58zM317 678
c0 -12 -2.66797 -22.999 -8.00098 -32.999s-13.666 -17.667 -24.999 -23l36 -79h-67l-27 70h-28v-70h-64v204h95c32 0 54.667 -6.33301 68 -19s20 -29.334 20 -50.001zM255.999 675.001c0 13.333 -8.66699 20 -26 20h-32v-41h34c8 0.666992 14 3 18 7s6 8.66699 6 14z" />
    <glyph glyph-name="macron" unicode="&#xaf;" horiz-adv-x="405" 
d="M364 684h-320v96h320v-96z" />
    <glyph glyph-name="degree" unicode="&#xb0;" horiz-adv-x="344" 
d="M32 675c0 20 3.66699 38.5 11 55.5s17.333 32 30 45s27.5 23.167 44.5 30.5s35.167 11 54.5 11s37.5 -3.66699 54.5 -11s31.833 -17.333 44.5 -30s22.667 -27.667 30 -45s11 -36 11 -56c0 -19.333 -3.66699 -37.666 -11 -54.999s-17.333 -32.5 -30 -45.5
s-27.5 -23.167 -44.5 -30.5s-35.167 -11 -54.5 -11s-37.5 3.66699 -54.5 11s-31.833 17.5 -44.5 30.5s-22.667 28.167 -30 45.5s-11 35.666 -11 54.999zM102 675c0 -19.333 6.66699 -35.501 20 -48.501s30 -19.5 50 -19.5s36.833 6.5 50.5 19.5s20.5 29.167 20.5 48.5
c0 20 -6.83301 36.5 -20.5 49.5s-30.5 19.5 -50.5 19.5c-20.667 0 -37.5 -6.66699 -50.5 -20s-19.5 -29.666 -19.5 -48.999z" />
    <glyph glyph-name="plusminus" unicode="&#xb1;" 
d="M388 332v-148h-137v148h-163v132h163v154h137v-154h164v-132h-164zM88 34v116h463v-116h-463z" />
    <glyph glyph-name="twosuperior" unicode="&#xb2;" horiz-adv-x="373" 
d="M341 767c0 -18.667 -3.83203 -35.833 -11.499 -51.5s-18.5 -30.667 -32.5 -45s-30.833 -28.666 -50.5 -42.999l-65.5 -45.5v-3h159l-2 -89h-298v69l74.5 63.5c23 19 42.833 36.333 59.5 52s29.667 30.167 39 43.5s14 26.666 14 39.999c0 11.333 -4.66699 20.833 -14 28.5
s-25 11.5 -47 11.5c-19.333 0 -37.5 -3 -54.5 -9s-34.5 -14.667 -52.5 -26l-25 85c20 13.333 42.667 23.5 68 30.5s53.666 10.5 84.999 10.5c52.667 0 91.5 -11.333 116.5 -34s37.5 -52 37.5 -88z" />
    <glyph glyph-name="threesuperior" unicode="&#xb3;" horiz-adv-x="373" 
d="M345 608c0 -38.667 -13.666 -68.834 -40.999 -90.501s-71.333 -32.5 -132 -32.5c-28 0 -53.833 3 -77.5 9s-44.167 14 -61.5 24l23 80c17.333 -9.33301 35.666 -16.5 54.999 -21.5s39.666 -7.5 60.999 -7.5c22.667 0 39.667 4 51 12s17 18.667 17 32
c0 6.66699 -1.5 12.667 -4.5 18s-8.5 9.83301 -16.5 13.5s-19.167 6.5 -33.5 8.5s-32.833 3 -55.5 3v73c22 0 39.833 0.833008 53.5 2.5s24.334 4.33398 32.001 8.00098s12.834 8 15.501 13s4 10.5 4 16.5c0 10 -4.83301 18 -14.5 24s-25.834 9 -48.501 9
c-44 0 -82.333 -11 -115 -33l-25 79c18 12.667 39.667 22.667 65 30s52 11 80 11c50.667 0 89.834 -9.83301 117.501 -29.5s41.5 -47.167 41.5 -82.5c0 -19.333 -5 -35.833 -15 -49.5s-24 -24.5 -42 -32.5v-2c21.333 -7.33301 37.666 -17.833 48.999 -31.5
s17 -31.5 17 -53.5z" />
    <glyph glyph-name="acute" unicode="&#xb4;" horiz-adv-x="405" 
d="M379 801l-120 -145h-117l59 145h178z" />
    <glyph glyph-name="mu" unicode="&#xb5;" horiz-adv-x="628" 
d="M325 -9c-27.333 0 -51.832 5.5 -73.499 16.5s-39.5 27.5 -53.5 49.5l-2 -1c2 -36 4.33301 -71 7 -105s5.66699 -67.333 9 -100l-150 -12v767h156v-389c0 -28 9.33301 -49.833 28 -65.5s43.334 -23.5 74.001 -23.5c29.333 0 53 6.66699 71 20s27 34 27 62v396h154v-602
l-110 -9l-19 43c-14.667 -14.667 -31.834 -26.167 -51.501 -34.5s-41.834 -12.5 -66.501 -12.5z" />
    <glyph glyph-name="paragraph" unicode="&#xb6;" horiz-adv-x="700" 
d="M182 -160v623c-45.333 2 -82.5 15.333 -111.5 40s-43.5 61 -43.5 109c0 40 14 73 42 99s67.667 39 119 39h476l-7 -126h-74v-784h-136v784h-130v-784h-135z" />
    <glyph glyph-name="periodcentered" unicode="&#xb7;" horiz-adv-x="296" 
d="M237 346c0 -27.333 -6.83301 -48.667 -20.5 -64s-36.5 -23 -68.5 -23s-55 6.5 -69 19.5s-21 35.5 -21 67.5c0 28 7 49.333 21 64s37 22 69 22s54.833 -7.33301 68.5 -22s20.5 -36 20.5 -64z" />
    <glyph glyph-name="cedilla" unicode="&#xb8;" horiz-adv-x="405" 
d="M177 13l103 1l-36 -203h-138z" />
    <glyph glyph-name="onesuperior" unicode="&#xb9;" horiz-adv-x="285" 
d="M230 490h-108v270l-79 -44l-9 88l128 81h68v-395z" />
    <glyph glyph-name="ordmasculine" unicode="&#xba;" horiz-adv-x="487" 
d="M451 577c0 -44.667 -4 -82.5 -12 -113.5s-20.5 -56.333 -37.5 -76s-38.5 -34 -64.5 -43s-57 -13.5 -93 -13.5s-67 4.5 -93 13.5s-47.5 23.333 -64.5 43s-29.667 45 -38 76s-12.5 68.833 -12.5 113.5c0 88.667 16.833 152.167 50.5 190.5s86.167 57.5 157.5 57.5
c36 0 67.167 -4.5 93.5 -13.5s47.833 -23.5 64.5 -43.5s29 -45.667 37 -77s12 -69.333 12 -114zM172 577c0 -28 1.33301 -50.833 4 -68.5s6.83398 -31.5 12.501 -41.5s13 -16.833 22 -20.5s20.167 -5.5 33.5 -5.5c12.667 0 23.667 1.83301 33 5.5s16.833 10.5 22.5 20.5
s9.83398 23.833 12.501 41.5s4 40.5 4 68.5s-1.33301 51 -4 69s-6.83398 32 -12.501 42s-13.167 16.833 -22.5 20.5s-20.333 5.5 -33 5.5c-13.333 0 -24.5 -1.83301 -33.5 -5.5s-16.333 -10.5 -22 -20.5s-9.83398 -24 -12.501 -42s-4 -41 -4 -69z" />
    <glyph glyph-name="guillemotright" unicode="&#xbb;" horiz-adv-x="651" 
d="M309 219l159 101l-159 102v120l312 -216v-11l-312 -216v120zM56 219l159 101l-159 102v120l312 -216v-11l-312 -216v120z" />
    <glyph glyph-name="onequarter" unicode="&#xbc;" horiz-adv-x="893" 
d="M294 356h-108v270l-79 -44l-9 88l128 81h68v-395zM803 70v-70h-101v70h-202l-9 61l182 263h130v-238h41l-3 -86h-38zM708 220l5 80h-3l-51 -77l-45 -64l1 -3h91zM756 750l-498 -750h-109l497 750h110z" />
    <glyph glyph-name="onehalf" unicode="&#xbd;" horiz-adv-x="893" 
d="M740 750l-498 -750h-109l497 750h110zM842 277c0 -18 -3.83203 -34.832 -11.499 -50.499s-18.5 -30.834 -32.5 -45.501s-30.833 -29.167 -50.5 -43.5l-65.5 -45.5v-3h159l-2 -89h-298v70l74.5 63c23 18.667 42.833 35.834 59.5 51.501s29.667 30.167 39 43.5
s14 26.666 14 39.999c0 11.333 -4.66699 20.833 -14 28.5s-25 11.5 -47 11.5c-19.333 0 -37.5 -3 -54.5 -9s-34.5 -14.333 -52.5 -25l-25 84c20 13.333 42.667 23.5 68 30.5s53.666 10.5 84.999 10.5c52.667 0 91.5 -11.333 116.5 -34s37.5 -52 37.5 -88zM297.001 356.001
h-108v270l-79 -44l-9 88l128 81h68v-395z" />
    <glyph glyph-name="threequarters" unicode="&#xbe;" horiz-adv-x="893" 
d="M770 70v-70h-101v70h-202l-9 61l182 263h130v-238h41l-3 -86h-38zM675 220l5 80h-3l-51 -77l-45 -64l1 -3h91zM750 750l-498 -750h-109l497 750h110zM365 474c0 -38.667 -13.666 -68.999 -40.999 -90.999s-71.333 -33 -132 -33c-28 0 -53.833 3.16699 -77.5 9.5
s-44.167 14.5 -61.5 24.5l23 80c17.333 -9.33301 35.666 -16.5 54.999 -21.5s39.666 -7.5 60.999 -7.5c22.667 0 39.667 4 51 12s17 18.667 17 32c0 6.66699 -1.5 12.667 -4.5 18s-8.5 9.83301 -16.5 13.5s-19.167 6.5 -33.5 8.5s-32.833 3 -55.5 3v72c22 0 39.833 1 53.5 3
s24.334 4.66699 32.001 8s12.834 7.66602 15.501 12.999s4 11 4 17c0 10 -4.83301 18 -14.5 24s-25.834 9 -48.501 9c-44 0 -82.333 -11 -115 -33l-25 79c18 12.667 39.667 22.667 65 30s52 11 80 11c50.667 0 89.834 -10 117.501 -30s41.5 -47.333 41.5 -82
c0 -19.333 -5 -35.833 -15 -49.5s-24 -24.5 -42 -32.5v-2c21.333 -7.33301 37.666 -17.833 48.999 -31.5s17 -31.5 17 -53.5z" />
    <glyph glyph-name="questiondown" unicode="&#xbf;" horiz-adv-x="489" 
d="M27 89c0 55.333 15.001 101.999 45.001 139.999s71.667 71 125 99l6 112h122l8 -169c-43.333 -23.333 -78.5 -47.166 -105.5 -71.499s-40.5 -52.833 -40.5 -85.5c0 -23.333 8.16699 -41 24.5 -53s39.833 -18 70.5 -18c30 0 57.667 4.83301 83 14.5
s47.666 23.167 66.999 40.5l55 -125c-25.333 -21.333 -58 -39 -98 -53s-83 -21 -129 -21c-78 0 -136.333 17 -175 51s-58 80.333 -58 139zM177.001 592.999c0 24 7 43 21 57s36 21 66 21c30.667 0 53 -6 67 -18s21 -32 21 -60c0 -25.333 -7 -44.833 -21 -58.5
s-36.333 -20.5 -67 -20.5c-30 0 -52 6.83301 -66 20.5s-21 33.167 -21 58.5z" />
    <glyph glyph-name="Agrave" unicode="&#xc0;" horiz-adv-x="734" 
d="M498 146h-272l-42 -146h-178l259 750h201l262 -750h-188zM342 544l-75 -257h191l-72 257l-20 79h-3zM318 794l-128 120h184l70 -120h-126z" />
    <glyph glyph-name="Aacute" unicode="&#xc1;" horiz-adv-x="734" 
d="M498 146h-272l-42 -146h-178l259 750h201l262 -750h-188zM342 544l-75 -257h191l-72 257l-20 79h-3zM549 913l-139 -121h-124l65 121h198z" />
    <glyph glyph-name="Acircumflex" unicode="&#xc2;" horiz-adv-x="734" 
d="M498 146h-272l-42 -146h-178l259 750h201l262 -750h-188zM342 544l-75 -257h191l-72 257l-20 79h-3zM446 913l107 -121h-136l-53 57l-52 -57h-134l103 121h165z" />
    <glyph glyph-name="Atilde" unicode="&#xc3;" horiz-adv-x="734" 
d="M498 146h-272l-42 -146h-178l259 750h201l262 -750h-188zM342 544l-75 -257h191l-72 257l-20 79h-3zM193 796c1.33301 36 10.998 65.001 28.998 87.001s43 33 75 33c16.667 0 31.834 -2.16699 45.501 -6.5s26.334 -9 38.001 -14l31.5 -14
c9.33301 -4.33301 18.333 -6.5 27 -6.5c9.33301 0 16.333 2.16699 21 6.5s8 12.166 10 23.499l68 -1c-1.33301 -36.667 -11.5 -65.834 -30.5 -87.501s-43.833 -32.5 -74.5 -32.5c-16.667 0 -31.5 2.16699 -44.5 6.5s-25 9 -36 14l-30 14c-9 4.33301 -17.833 6.5 -26.5 6.5
c-8 0 -15 -2.66699 -21 -8s-9.66699 -12.666 -11 -21.999z" />
    <glyph glyph-name="Adieresis" unicode="&#xc4;" horiz-adv-x="734" 
d="M498 146h-272l-42 -146h-178l259 750h201l262 -750h-188zM342 544l-75 -257h191l-72 257l-20 79h-3zM330 853c0 -20 -5 -35.166 -15 -45.499s-26.333 -15.5 -49 -15.5c-22 0 -38.5 4.66699 -49.5 14s-16.5 25 -16.5 47c0 42 22 63 66 63c22.667 0 39 -5.33301 49 -16
s15 -26.334 15 -47.001zM529 853.001c0 -40.667 -21.667 -61 -65 -61c-22 0 -38.333 4.66699 -49 14s-16 25 -16 47c0 42 21.667 63 65 63s65 -21 65 -63z" />
    <glyph glyph-name="Aring" unicode="&#xc5;" horiz-adv-x="734" 
d="M233 803c0 30.667 9.33398 55.167 28.001 73.5s52 27.5 100 27.5c47.333 0 81.166 -9.33301 101.499 -28s30.5 -42.667 30.5 -72c0 -30.667 -7.33301 -53.667 -22 -69l257 -735h-188l-42 146h-272l-42 -146h-178l252 730c-16.667 16 -25 40.333 -25 73zM342.001 544
l-75 -257h191l-72 257l-20 79h-3zM313.001 798c0 -10.667 3.33301 -18.832 10 -24.499s20.667 -8.5 42 -8.5c18.667 0 31.667 2.66699 39 8s11 13.666 11 24.999s-3.5 20.166 -10.5 26.499s-20.167 9.5 -39.5 9.5c-21.333 0 -35.333 -3.16699 -42 -9.5
s-10 -15.166 -10 -26.499z" />
    <glyph glyph-name="AE" unicode="&#xc6;" horiz-adv-x="1064" 
d="M687 601l9 -149h266v-134h-257l10 -171h315l-4 -147h-472l-9 148h-258l-69 -148h-199l404 750h592l3 -149h-331zM483 563l-131 -277h185l-15 269l-3 81l-3 1z" />
    <glyph glyph-name="Ccedilla" unicode="&#xc7;" horiz-adv-x="597" 
d="M321 -11c-94 10.667 -163.834 47.832 -209.501 111.499s-68.5 156.834 -68.5 279.501c0 124.667 28 219.667 84 285s144 98 264 98c14.667 0 30 -0.833008 46 -2.5s31.667 -3.83398 47 -6.50098s30 -6 44 -10s26.333 -8 37 -12l-17 -145
c-19.333 7.33301 -41.666 13.333 -66.999 18s-52 7 -80 7c-34 0 -62.5 -3.83301 -85.5 -11.5s-41.667 -20.5 -56 -38.5s-24.5 -41.833 -30.5 -71.5s-9 -66.834 -9 -111.501c0 -47.333 3.16699 -86.5 9.5 -117.5s16.666 -56 30.999 -75s33.333 -32.333 57 -40
s52.5 -11.5 86.5 -11.5c28 0 54 2.5 78 7.5s46.667 12.167 68 21.5l17 -137c-18.667 -9.33301 -40.167 -17.166 -64.5 -23.499s-49.166 -11.166 -74.499 -14.499l-31 -178h-138z" />
    <glyph glyph-name="Egrave" unicode="&#xc8;" horiz-adv-x="619" 
d="M585 147l-4 -147h-510v750h495l3 -149h-329v-149h277v-134h-277v-171h345zM281 794l-128 120h184l70 -120h-126z" />
    <glyph glyph-name="Eacute" unicode="&#xc9;" horiz-adv-x="619" 
d="M585 147l-4 -147h-510v750h495l3 -149h-329v-149h277v-134h-277v-171h345zM511 913l-139 -121h-124l65 121h198z" />
    <glyph glyph-name="Ecircumflex" unicode="&#xca;" horiz-adv-x="619" 
d="M585 147l-4 -147h-510v750h495l3 -149h-329v-149h277v-134h-277v-171h345zM408 913l107 -121h-136l-53 57l-52 -57h-134l103 121h165z" />
    <glyph glyph-name="Edieresis" unicode="&#xcb;" horiz-adv-x="619" 
d="M585 147l-4 -147h-510v750h495l3 -149h-329v-149h277v-134h-277v-171h345zM293 853c0 -20 -5 -35.166 -15 -45.499s-26.333 -15.5 -49 -15.5c-22 0 -38.5 4.66699 -49.5 14s-16.5 25 -16.5 47c0 42 22 63 66 63c22.667 0 39 -5.33301 49 -16s15 -26.334 15 -47.001z
M492 853.001c0 -40.667 -21.667 -61 -65 -61c-22 0 -38.333 4.66699 -49 14s-16 25 -16 47c0 42 21.667 63 65 63s65 -21 65 -63z" />
    <glyph glyph-name="Igrave" unicode="&#xcc;" horiz-adv-x="336" 
d="M82 750h172v-750h-172v750zM121 794l-128 120h184l70 -120h-126z" />
    <glyph glyph-name="Iacute" unicode="&#xcd;" horiz-adv-x="336" 
d="M82 750h172v-750h-172v750zM352 913l-139 -121h-124l65 121h198z" />
    <glyph glyph-name="Icircumflex" unicode="&#xce;" horiz-adv-x="336" 
d="M82 750h172v-750h-172v750zM249 913l107 -121h-136l-53 57l-52 -57h-134l103 121h165z" />
    <glyph glyph-name="Idieresis" unicode="&#xcf;" horiz-adv-x="336" 
d="M82 750h172v-750h-172v750zM133 853c0 -20 -5 -35.166 -15 -45.499s-26.333 -15.5 -49 -15.5c-22 0 -38.5 4.66699 -49.5 14s-16.5 25 -16.5 47c0 42 22 63 66 63c22.667 0 39 -5.33301 49 -16s15 -26.334 15 -47.001zM332 853.001c0 -40.667 -21.667 -61 -65 -61
c-22 0 -38.333 4.66699 -49 14s-16 25 -16 47c0 42 21.667 63 65 63s65 -21 65 -63z" />
    <glyph glyph-name="Eth" unicode="&#xd0;" horiz-adv-x="742" 
d="M699 378c0 -68 -7 -125.834 -21 -173.501s-35 -86.667 -63 -117s-63 -52.5 -105 -66.5s-90.667 -21 -146 -21h-283v339h-59v100h59v311h281c59.333 0 110.333 -7.16699 153 -21.5s77.667 -36.666 105 -66.999s47.333 -69 60 -116s19 -102.833 19 -167.5zM522 378.999
c0 44.667 -2.83301 81.1689 -8.5 109.502s-15 50.666 -28 66.999s-29.667 27.666 -50 33.999s-45.5 9.5 -75.5 9.5h-110v-160h83v-100h-83v-189h111c28.667 0 53.167 3 73.5 9s37 17.167 50 33.5s22.5 39.5 28.5 69.5s9 69 9 117z" />
    <glyph glyph-name="Ntilde" unicode="&#xd1;" horiz-adv-x="747" 
d="M558 0l-291 409l-45 67l-2 -1l1 -81v-394h-150v750h144l267 -387l45 -67l2 1l-2 80v373h149v-750h-118zM205 796c1.33301 36 10.998 65.001 28.998 87.001s43 33 75 33c16.667 0 31.834 -2.16699 45.501 -6.5s26.334 -9 38.001 -14l31.5 -14
c9.33301 -4.33301 18.333 -6.5 27 -6.5c9.33301 0 16.333 2.16699 21 6.5s8 12.166 10 23.499l68 -1c-1.33301 -36.667 -11.5 -65.834 -30.5 -87.501s-43.833 -32.5 -74.5 -32.5c-16.667 0 -31.5 2.16699 -44.5 6.5s-25 9 -36 14l-30 14c-9 4.33301 -17.833 6.5 -26.5 6.5
c-8 0 -15 -2.66699 -21 -8s-9.66699 -12.666 -11 -21.999z" />
    <glyph glyph-name="Ograve" unicode="&#xd2;" horiz-adv-x="748" 
d="M704 375c0 -68 -6.16992 -126.5 -18.5029 -175.5s-31.833 -89.333 -58.5 -121s-60.834 -55 -102.501 -70s-91.834 -22.5 -150.501 -22.5c-115.333 0 -199.333 31.5 -252 94.5s-79 161.167 -79 294.5c0 66.667 6.33301 124.334 19 173.001s32.334 88.834 59.001 120.501
s60.834 55.167 102.501 70.5s91.834 23 150.501 23s108.834 -7.66699 150.501 -23s75.834 -38.833 102.501 -70.5s46.167 -71.834 58.5 -120.501s18.5 -106.334 18.5 -173.001zM527.997 375c0 47.333 -2.66504 86.333 -7.99805 117s-14 54.834 -26 72.501
s-27.833 29.834 -47.5 36.501s-43.834 10 -72.501 10s-52.834 -3.33301 -72.501 -10s-35.5 -18.834 -47.5 -36.501s-20.667 -41.834 -26 -72.501s-8 -69.667 -8 -117s2.66699 -86.333 8 -117s14.166 -55 26.499 -73s28.333 -30.5 48 -37.5s43.834 -10.5 72.501 -10.5
c28 0 51.833 3.5 71.5 10.5s35.5 19.5 47.5 37.5s20.667 42.333 26 73s8 69.667 8 117zM339.999 794l-128 120h184l70 -120h-126z" />
    <glyph glyph-name="Oacute" unicode="&#xd3;" horiz-adv-x="748" 
d="M704 375c0 -68 -6.16992 -126.5 -18.5029 -175.5s-31.833 -89.333 -58.5 -121s-60.834 -55 -102.501 -70s-91.834 -22.5 -150.501 -22.5c-115.333 0 -199.333 31.5 -252 94.5s-79 161.167 -79 294.5c0 66.667 6.33301 124.334 19 173.001s32.334 88.834 59.001 120.501
s60.834 55.167 102.501 70.5s91.834 23 150.501 23s108.834 -7.66699 150.501 -23s75.834 -38.833 102.501 -70.5s46.167 -71.834 58.5 -120.501s18.5 -106.334 18.5 -173.001zM527.997 375c0 47.333 -2.66504 86.333 -7.99805 117s-14 54.834 -26 72.501
s-27.833 29.834 -47.5 36.501s-43.834 10 -72.501 10s-52.834 -3.33301 -72.501 -10s-35.5 -18.834 -47.5 -36.501s-20.667 -41.834 -26 -72.501s-8 -69.667 -8 -117s2.66699 -86.333 8 -117s14.166 -55 26.499 -73s28.333 -30.5 48 -37.5s43.834 -10.5 72.501 -10.5
c28 0 51.833 3.5 71.5 10.5s35.5 19.5 47.5 37.5s20.667 42.333 26 73s8 69.667 8 117zM558.999 913l-139 -121h-124l65 121h198z" />
    <glyph glyph-name="Ocircumflex" unicode="&#xd4;" horiz-adv-x="748" 
d="M704 375c0 -68 -6.16992 -126.5 -18.5029 -175.5s-31.833 -89.333 -58.5 -121s-60.834 -55 -102.501 -70s-91.834 -22.5 -150.501 -22.5c-115.333 0 -199.333 31.5 -252 94.5s-79 161.167 -79 294.5c0 66.667 6.33301 124.334 19 173.001s32.334 88.834 59.001 120.501
s60.834 55.167 102.501 70.5s91.834 23 150.501 23s108.834 -7.66699 150.501 -23s75.834 -38.833 102.501 -70.5s46.167 -71.834 58.5 -120.501s18.5 -106.334 18.5 -173.001zM527.997 375c0 47.333 -2.66504 86.333 -7.99805 117s-14 54.834 -26 72.501
s-27.833 29.834 -47.5 36.501s-43.834 10 -72.501 10s-52.834 -3.33301 -72.501 -10s-35.5 -18.834 -47.5 -36.501s-20.667 -41.834 -26 -72.501s-8 -69.667 -8 -117s2.66699 -86.333 8 -117s14.166 -55 26.499 -73s28.333 -30.5 48 -37.5s43.834 -10.5 72.501 -10.5
c28 0 51.833 3.5 71.5 10.5s35.5 19.5 47.5 37.5s20.667 42.333 26 73s8 69.667 8 117zM455.999 913l107 -121h-136l-53 57l-52 -57h-134l103 121h165z" />
    <glyph glyph-name="Otilde" unicode="&#xd5;" horiz-adv-x="748" 
d="M704 375c0 -68 -6.16992 -126.5 -18.5029 -175.5s-31.833 -89.333 -58.5 -121s-60.834 -55 -102.501 -70s-91.834 -22.5 -150.501 -22.5c-115.333 0 -199.333 31.5 -252 94.5s-79 161.167 -79 294.5c0 66.667 6.33301 124.334 19 173.001s32.334 88.834 59.001 120.501
s60.834 55.167 102.501 70.5s91.834 23 150.501 23s108.834 -7.66699 150.501 -23s75.834 -38.833 102.501 -70.5s46.167 -71.834 58.5 -120.501s18.5 -106.334 18.5 -173.001zM527.997 375c0 47.333 -2.66504 86.333 -7.99805 117s-14 54.834 -26 72.501
s-27.833 29.834 -47.5 36.501s-43.834 10 -72.501 10s-52.834 -3.33301 -72.501 -10s-35.5 -18.834 -47.5 -36.501s-20.667 -41.834 -26 -72.501s-8 -69.667 -8 -117s2.66699 -86.333 8 -117s14.166 -55 26.499 -73s28.333 -30.5 48 -37.5s43.834 -10.5 72.501 -10.5
c28 0 51.833 3.5 71.5 10.5s35.5 19.5 47.5 37.5s20.667 42.333 26 73s8 69.667 8 117zM203.999 796c1.33301 36 10.998 65.001 28.998 87.001s43 33 75 33c16.667 0 31.834 -2.16699 45.501 -6.5s26.334 -9 38.001 -14l31.5 -14c9.33301 -4.33301 18.333 -6.5 27 -6.5
c9.33301 0 16.333 2.16699 21 6.5s8 12.166 10 23.499l68 -1c-1.33301 -36.667 -11.5 -65.834 -30.5 -87.501s-43.833 -32.5 -74.5 -32.5c-16.667 0 -31.5 2.16699 -44.5 6.5s-25 9 -36 14l-30 14c-9 4.33301 -17.833 6.5 -26.5 6.5c-8 0 -15 -2.66699 -21 -8
s-9.66699 -12.666 -11 -21.999z" />
    <glyph glyph-name="Odieresis" unicode="&#xd6;" horiz-adv-x="748" 
d="M704 375c0 -68 -6.16992 -126.5 -18.5029 -175.5s-31.833 -89.333 -58.5 -121s-60.834 -55 -102.501 -70s-91.834 -22.5 -150.501 -22.5c-115.333 0 -199.333 31.5 -252 94.5s-79 161.167 -79 294.5c0 66.667 6.33301 124.334 19 173.001s32.334 88.834 59.001 120.501
s60.834 55.167 102.501 70.5s91.834 23 150.501 23s108.834 -7.66699 150.501 -23s75.834 -38.833 102.501 -70.5s46.167 -71.834 58.5 -120.501s18.5 -106.334 18.5 -173.001zM527.997 375c0 47.333 -2.66504 86.333 -7.99805 117s-14 54.834 -26 72.501
s-27.833 29.834 -47.5 36.501s-43.834 10 -72.501 10s-52.834 -3.33301 -72.501 -10s-35.5 -18.834 -47.5 -36.501s-20.667 -41.834 -26 -72.501s-8 -69.667 -8 -117s2.66699 -86.333 8 -117s14.166 -55 26.499 -73s28.333 -30.5 48 -37.5s43.834 -10.5 72.501 -10.5
c28 0 51.833 3.5 71.5 10.5s35.5 19.5 47.5 37.5s20.667 42.333 26 73s8 69.667 8 117zM340.999 853c0 -20 -5 -35.166 -15 -45.499s-26.333 -15.5 -49 -15.5c-22 0 -38.5 4.66699 -49.5 14s-16.5 25 -16.5 47c0 42 22 63 66 63c22.667 0 39 -5.33301 49 -16
s15 -26.334 15 -47.001zM539.999 853.001c0 -40.667 -21.667 -61 -65 -61c-22 0 -38.333 4.66699 -49 14s-16 25 -16 47c0 42 21.667 63 65 63s65 -21 65 -63z" />
    <glyph glyph-name="multiply" unicode="&#xd7;" horiz-adv-x="602" 
d="M434 101l-133 131l-133 -131l-90 95l134 131l-136 133l90 97l136 -134l135 133l89 -95l-136 -134l134 -130z" />
    <glyph glyph-name="Oslash" unicode="&#xd8;" horiz-adv-x="748" 
d="M33 55l57.002 70.998c-31.333 60.667 -47 143.667 -47 249c0 66.667 6.16699 124.334 18.5 173.001s31.833 88.834 58.5 120.501s61 55.167 103 70.5s92.333 23 151 23c94 0 166.667 -20.333 218 -61l53 63l78 -75l-62 -75c28.667 -59.333 43 -139 43 -239
c0 -68 -6.16699 -126.5 -18.5 -175.5s-31.833 -89.333 -58.5 -121s-60.834 -55 -102.501 -70s-91.834 -22.5 -150.501 -22.5c-91.333 0 -162.333 19 -213 57l-48 -60zM220.002 374.998c0 -21.333 0.5 -40.998 1.5 -58.998s2.16699 -34.667 3.5 -50l264 304
c-12 15.333 -27.333 26 -46 32s-42 9 -70 9s-51.833 -3.33301 -71.5 -10s-35.5 -18.834 -47.5 -36.501s-20.667 -41.834 -26 -72.501s-8 -69.667 -8 -117zM527.002 375c0 19.333 -0.331055 37.167 -0.998047 53.5s-1.33398 31.5 -2.00098 45.5l-262 -300
c12.667 -14 28.167 -23.667 46.5 -29s40.166 -8 65.499 -8c28.667 0 52.667 3.5 72 10.5s35 19.5 47 37.5s20.667 42.333 26 73s8 69.667 8 117z" />
    <glyph glyph-name="Ugrave" unicode="&#xd9;" horiz-adv-x="726" 
d="M665 268c0 -188 -100.333 -281.999 -301 -281.999c-99.333 0 -174.666 23.167 -225.999 69.5s-77 117.166 -77 212.499v482h168v-480c0 -46 10.667 -79.333 32 -100s55.666 -31 102.999 -31s81.5 10.333 102.5 31s31.5 54 31.5 100v480h167v-482zM318 794.001l-128 120
h184l70 -120h-126z" />
    <glyph glyph-name="Uacute" unicode="&#xda;" horiz-adv-x="726" 
d="M665 268c0 -188 -100.333 -281.999 -301 -281.999c-99.333 0 -174.666 23.167 -225.999 69.5s-77 117.166 -77 212.499v482h168v-480c0 -46 10.667 -79.333 32 -100s55.666 -31 102.999 -31s81.5 10.333 102.5 31s31.5 54 31.5 100v480h167v-482zM549 913.001l-139 -121
h-124l65 121h198z" />
    <glyph glyph-name="Ucircumflex" unicode="&#xdb;" horiz-adv-x="726" 
d="M665 268c0 -188 -100.333 -281.999 -301 -281.999c-99.333 0 -174.666 23.167 -225.999 69.5s-77 117.166 -77 212.499v482h168v-480c0 -46 10.667 -79.333 32 -100s55.666 -31 102.999 -31s81.5 10.333 102.5 31s31.5 54 31.5 100v480h167v-482zM445 913.001l107 -121
h-136l-53 57l-52 -57h-134l103 121h165z" />
    <glyph glyph-name="Udieresis" unicode="&#xdc;" horiz-adv-x="726" 
d="M665 268c0 -188 -100.333 -281.999 -301 -281.999c-99.333 0 -174.666 23.167 -225.999 69.5s-77 117.166 -77 212.499v482h168v-480c0 -46 10.667 -79.333 32 -100s55.666 -31 102.999 -31s81.5 10.333 102.5 31s31.5 54 31.5 100v480h167v-482zM330 853.001
c0 -20 -5 -35.166 -15 -45.499s-26.333 -15.5 -49 -15.5c-22 0 -38.5 4.66699 -49.5 14s-16.5 25 -16.5 47c0 42 22 63 66 63c22.667 0 39 -5.33301 49 -16s15 -26.334 15 -47.001zM529 853.002c0 -40.667 -21.667 -61 -65 -61c-22 0 -38.333 4.66699 -49 14s-16 25 -16 47
c0 42 21.667 63 65 63s65 -21 65 -63z" />
    <glyph glyph-name="Yacute" unicode="&#xdd;" horiz-adv-x="698" 
d="M196 750l126 -284l31 -74h3l30 75l121 283h185l-255 -511v-239h-172v239l-259 511h190zM537 913l-139 -121h-124l65 121h198z" />
    <glyph glyph-name="Thorn" unicode="&#xde;" horiz-adv-x="665" 
d="M633 378c0 -40 -5.49707 -75.334 -16.4971 -106.001s-28.667 -56.667 -53 -78s-55.833 -37.5 -94.5 -48.5s-85.334 -16.5 -140.001 -16.5h-89v-129h-169v750h169v-115h89c54.667 0 101.167 -5.16699 139.5 -15.5s69.666 -26.166 93.999 -47.499s42.166 -48 53.499 -80
s17 -70 17 -114zM459.003 378.999c0 22 -2.16797 40.499 -6.50098 55.499s-11.666 26.833 -21.999 35.5s-23.833 14.834 -40.5 18.501s-37 5.5 -61 5.5h-89v-230h89c23.333 0 43.166 1.5 59.499 4.5s29.833 8.83301 40.5 17.5s18.334 20.5 23.001 35.5s7 34.167 7 57.5z" />
    <glyph glyph-name="germandbls" unicode="&#xdf;" horiz-adv-x="657" 
d="M67 489c0 182.667 85.666 274 256.999 274c32.667 0 62.167 -4.5 88.5 -13.5s48.833 -21.167 67.5 -36.5s33.167 -33.333 43.5 -54s15.5 -43 15.5 -67c0 -21.333 -4.83301 -40.166 -14.5 -56.499s-20.167 -30.833 -31.5 -43.5s-21.833 -23.834 -31.5 -33.501
s-14.5 -18.834 -14.5 -27.501c0 -6.66699 4.5 -13.167 13.5 -19.5s20.167 -13.666 33.5 -21.999l43.5 -28c15.667 -10.333 30.167 -23 43.5 -38s24.5 -32.333 33.5 -52s13.5 -42.834 13.5 -69.501c0 -32.667 -5.66699 -62 -17 -88s-27.333 -48.167 -48 -66.5
s-45.667 -32.333 -75 -42s-61.666 -14.5 -96.999 -14.5c-23.333 0 -48.166 2.5 -74.499 7.5s-48.5 13.167 -66.5 24.5l9 131c11.333 -7.33301 26.666 -13.5 45.999 -18.5s39 -7.5 59 -7.5c30 0 55.167 5.33301 75.5 16s30.5 28.667 30.5 54c0 15.333 -4.66699 29 -14 41
s-21 23.333 -35 34s-29.333 20.667 -46 30s-32 19.333 -46 30s-25.667 22.334 -35 35.001s-14 27 -14 43c0 18 5.66699 34.667 17 50s24 30 38 44s26.667 27.667 38 41s17 27 17 41s-6.16699 25.333 -18.5 34s-29.5 13 -51.5 13c-34 0 -58.833 -10 -74.5 -30
s-23.5 -53.667 -23.5 -101v-503h-155v489z" />
    <glyph glyph-name="agrave" unicode="&#xe0;" horiz-adv-x="581" 
d="M394 58l-3.00098 1.00098c-18.667 -22 -42 -39 -70 -51s-59.333 -18 -94 -18c-57.333 0 -103 16.5 -137 49.5s-51 83.5 -51 151.5c0 28 4.83301 53.667 14.5 77s23.667 43.166 42 59.499s40.833 29.166 67.5 38.499s57.334 14 92.001 14c22.667 0 43.667 -1.5 63 -4.5
s37 -7.16699 53 -12.5v35c0 30.667 -8.66699 53.167 -26 67.5s-47 21.5 -89 21.5c-33.333 0 -62.5 -2.66699 -87.5 -8s-51.5 -13.666 -79.5 -24.999l-13 124c30.667 13.333 63.167 23.333 97.5 30s71.166 10 110.499 10c44.667 0 82.334 -4.83301 113.001 -14.5
s55.5 -24.5 74.5 -44.5s32.667 -45.333 41 -76s12.5 -66.667 12.5 -108v-375h-119zM370.999 260.001c-7.33301 3.33301 -18.332 6.33203 -32.999 8.99902s-32.334 4 -53.001 4c-67.333 0 -101 -26.667 -101 -80c0 -30 8 -50.833 24 -62.5s36.667 -17.5 62 -17.5
c13.333 0 26 1.83301 38 5.5s22.667 8.83398 32 15.501s16.833 14.167 22.5 22.5s8.5 17.5 8.5 27.5v76zM245 656l-120 145h177l60 -145h-117z" />
    <glyph glyph-name="aacute" unicode="&#xe1;" horiz-adv-x="581" 
d="M394 58l-3.00098 1.00098c-18.667 -22 -42 -39 -70 -51s-59.333 -18 -94 -18c-57.333 0 -103 16.5 -137 49.5s-51 83.5 -51 151.5c0 28 4.83301 53.667 14.5 77s23.667 43.166 42 59.499s40.833 29.166 67.5 38.499s57.334 14 92.001 14c22.667 0 43.667 -1.5 63 -4.5
s37 -7.16699 53 -12.5v35c0 30.667 -8.66699 53.167 -26 67.5s-47 21.5 -89 21.5c-33.333 0 -62.5 -2.66699 -87.5 -8s-51.5 -13.666 -79.5 -24.999l-13 124c30.667 13.333 63.167 23.333 97.5 30s71.166 10 110.499 10c44.667 0 82.334 -4.83301 113.001 -14.5
s55.5 -24.5 74.5 -44.5s32.667 -45.333 41 -76s12.5 -66.667 12.5 -108v-375h-119zM370.999 260.001c-7.33301 3.33301 -18.332 6.33203 -32.999 8.99902s-32.334 4 -53.001 4c-67.333 0 -101 -26.667 -101 -80c0 -30 8 -50.833 24 -62.5s36.667 -17.5 62 -17.5
c13.333 0 26 1.83301 38 5.5s22.667 8.83398 32 15.501s16.833 14.167 22.5 22.5s8.5 17.5 8.5 27.5v76zM443 801l-120 -145h-117l59 145h178z" />
    <glyph glyph-name="acircumflex" unicode="&#xe2;" horiz-adv-x="581" 
d="M394 58l-3.00098 1.00098c-18.667 -22 -42 -39 -70 -51s-59.333 -18 -94 -18c-57.333 0 -103 16.5 -137 49.5s-51 83.5 -51 151.5c0 28 4.83301 53.667 14.5 77s23.667 43.166 42 59.499s40.833 29.166 67.5 38.499s57.334 14 92.001 14c22.667 0 43.667 -1.5 63 -4.5
s37 -7.16699 53 -12.5v35c0 30.667 -8.66699 53.167 -26 67.5s-47 21.5 -89 21.5c-33.333 0 -62.5 -2.66699 -87.5 -8s-51.5 -13.666 -79.5 -24.999l-13 124c30.667 13.333 63.167 23.333 97.5 30s71.166 10 110.499 10c44.667 0 82.334 -4.83301 113.001 -14.5
s55.5 -24.5 74.5 -44.5s32.667 -45.333 41 -76s12.5 -66.667 12.5 -108v-375h-119zM370.999 260.001c-7.33301 3.33301 -18.332 6.33203 -32.999 8.99902s-32.334 4 -53.001 4c-67.333 0 -101 -26.667 -101 -80c0 -30 8 -50.833 24 -62.5s36.667 -17.5 62 -17.5
c13.333 0 26 1.83301 38 5.5s22.667 8.83398 32 15.501s16.833 14.167 22.5 22.5s8.5 17.5 8.5 27.5v76zM354 801l100 -145h-115l-52 82l-51 -82h-115l98 145h135z" />
    <glyph glyph-name="atilde" unicode="&#xe3;" horiz-adv-x="581" 
d="M394 58l-3.00098 1.00098c-18.667 -22 -42 -39 -70 -51s-59.333 -18 -94 -18c-57.333 0 -103 16.5 -137 49.5s-51 83.5 -51 151.5c0 28 4.83301 53.667 14.5 77s23.667 43.166 42 59.499s40.833 29.166 67.5 38.499s57.334 14 92.001 14c22.667 0 43.667 -1.5 63 -4.5
s37 -7.16699 53 -12.5v35c0 30.667 -8.66699 53.167 -26 67.5s-47 21.5 -89 21.5c-33.333 0 -62.5 -2.66699 -87.5 -8s-51.5 -13.666 -79.5 -24.999l-13 124c30.667 13.333 63.167 23.333 97.5 30s71.166 10 110.499 10c44.667 0 82.334 -4.83301 113.001 -14.5
s55.5 -24.5 74.5 -44.5s32.667 -45.333 41 -76s12.5 -66.667 12.5 -108v-375h-119zM370.999 260.001c-7.33301 3.33301 -18.332 6.33203 -32.999 8.99902s-32.334 4 -53.001 4c-67.333 0 -101 -26.667 -101 -80c0 -30 8 -50.833 24 -62.5s36.667 -17.5 62 -17.5
c13.333 0 26 1.83301 38 5.5s22.667 8.83398 32 15.501s16.833 14.167 22.5 22.5s8.5 17.5 8.5 27.5v76zM120 669c1.33301 38.667 11.1689 70.666 29.502 95.999s42.833 38 73.5 38c16.667 0 31.167 -2.66699 43.5 -8s23.5 -11.333 33.5 -18l28 -18
c8.66699 -5.33301 18.334 -8 29.001 -8c9.33301 0 16.666 3.66699 21.999 11s9.66602 17.333 12.999 30l71 -1c-1.33301 -40 -11.5 -72.167 -30.5 -96.5s-43.5 -36.5 -73.5 -36.5c-16.667 0 -31 2.66699 -43 8s-23 11.333 -33 18s-19.5 12.667 -28.5 18s-18.5 8 -28.5 8
c-9.33301 0 -16.833 -4.16699 -22.5 -12.5s-9.83398 -18.166 -12.501 -29.499z" />
    <glyph glyph-name="adieresis" unicode="&#xe4;" horiz-adv-x="581" 
d="M394 58l-3.00098 1.00098c-18.667 -22 -42 -39 -70 -51s-59.333 -18 -94 -18c-57.333 0 -103 16.5 -137 49.5s-51 83.5 -51 151.5c0 28 4.83301 53.667 14.5 77s23.667 43.166 42 59.499s40.833 29.166 67.5 38.499s57.334 14 92.001 14c22.667 0 43.667 -1.5 63 -4.5
s37 -7.16699 53 -12.5v35c0 30.667 -8.66699 53.167 -26 67.5s-47 21.5 -89 21.5c-33.333 0 -62.5 -2.66699 -87.5 -8s-51.5 -13.666 -79.5 -24.999l-13 124c30.667 13.333 63.167 23.333 97.5 30s71.166 10 110.499 10c44.667 0 82.334 -4.83301 113.001 -14.5
s55.5 -24.5 74.5 -44.5s32.667 -45.333 41 -76s12.5 -66.667 12.5 -108v-375h-119zM370.999 260.001c-7.33301 3.33301 -18.332 6.33203 -32.999 8.99902s-32.334 4 -53.001 4c-67.333 0 -101 -26.667 -101 -80c0 -30 8 -50.833 24 -62.5s36.667 -17.5 62 -17.5
c13.333 0 26 1.83301 38 5.5s22.667 8.83398 32 15.501s16.833 14.167 22.5 22.5s8.5 17.5 8.5 27.5v76zM266 738c0 -21.333 -5.16699 -37.501 -15.5 -48.501s-27.166 -16.5 -50.499 -16.5c-22 0 -38.333 5 -49 15s-16 26.667 -16 50c0 44 21.667 66 65 66
c23.333 0 40.166 -5.66699 50.499 -17s15.5 -27.666 15.5 -48.999zM448 737.999c0 -21.333 -5 -37.501 -15 -48.501s-26.667 -16.5 -50 -16.5c-22 0 -38.5 5 -49.5 15s-16.5 26.667 -16.5 50c0 44 22 66 66 66c23.333 0 40 -5.66699 50 -17s15 -27.666 15 -48.999z" />
    <glyph glyph-name="aring" unicode="&#xe5;" horiz-adv-x="581" 
d="M394 58l-3.00098 1.00098c-18.667 -22 -42 -39 -70 -51s-59.333 -18 -94 -18c-57.333 0 -103 16.5 -137 49.5s-51 83.5 -51 151.5c0 28 4.83301 53.667 14.5 77s23.667 43.166 42 59.499s40.833 29.166 67.5 38.499s57.334 14 92.001 14c22.667 0 43.667 -1.5 63 -4.5
s37 -7.16699 53 -12.5v35c0 30.667 -8.66699 53.167 -26 67.5s-47 21.5 -89 21.5c-33.333 0 -62.5 -2.66699 -87.5 -8s-51.5 -13.666 -79.5 -24.999l-13 124c30.667 13.333 63.167 23.333 97.5 30s71.166 10 110.499 10c44.667 0 82.334 -4.83301 113.001 -14.5
s55.5 -24.5 74.5 -44.5s32.667 -45.333 41 -76s12.5 -66.667 12.5 -108v-375h-119zM370.999 260.001c-7.33301 3.33301 -18.332 6.33203 -32.999 8.99902s-32.334 4 -53.001 4c-67.333 0 -101 -26.667 -101 -80c0 -30 8 -50.833 24 -62.5s36.667 -17.5 62 -17.5
c13.333 0 26 1.83301 38 5.5s22.667 8.83398 32 15.501s16.833 14.167 22.5 22.5s8.5 17.5 8.5 27.5v76zM164 743c0 28 9.5 50.001 28.5 66.001s51.167 24 96.5 24c44 0 76 -8.33301 96 -25s30 -38.334 30 -65.001c0 -30.667 -10 -53.334 -30 -68.001s-52 -22 -96 -22
c-42 0 -73.333 6.83301 -94 20.5s-31 36.834 -31 69.501zM239 742.001c0 -9.33301 3.49902 -16.833 10.499 -22.5s20.833 -8.5 41.5 -8.5c18 0 31 2.66699 39 8s12 13 12 23c0 9.33301 -3.66699 16.833 -11 22.5s-20.666 8.5 -39.999 8.5c-20 0 -33.667 -2.83301 -41 -8.5
s-11 -13.167 -11 -22.5z" />
    <glyph glyph-name="ae" unicode="&#xe6;" horiz-adv-x="909" 
d="M284 616c45.333 0 82.166 -5.33984 110.499 -16.0068s50.5 -26.667 66.5 -48c21.333 20.667 46.166 36.667 74.499 48s61.5 17 99.5 17c35.333 0 67.833 -5.66699 97.5 -17s55 -28.666 76 -51.999s37.333 -52.666 49 -87.999s17.5 -77 17.5 -125
c0 -11.333 -0.333008 -23.666 -1 -36.999s-1.66699 -25.333 -3 -36h-353c4 -50.667 18.833 -86.5 44.5 -107.5s64.5 -31.5 116.5 -31.5c28.667 0 56.5 2.83301 83.5 8.5s53.167 13.5 78.5 23.5l17 -127c-25.333 -11.333 -55 -20.666 -89 -27.999s-70.333 -11 -109 -11
c-57.333 0 -103.833 8 -139.5 24s-64.167 37.333 -85.5 64c-21.333 -28 -48.333 -49.667 -81 -65s-70 -23 -112 -23c-65.333 0 -115.5 16.333 -150.5 49s-52.5 83.334 -52.5 152.001c0 28 4.83301 53.5 14.5 76.5s23.667 42.833 42 59.5s40.833 29.5 67.5 38.5
s57.334 13.5 92.001 13.5c23.333 0 44.333 -1.5 63 -4.5s36.334 -6.83301 53.001 -11.5v35c0 30.667 -8.66699 53.167 -26 67.5s-47 21.5 -89 21.5c-33.333 0 -62.5 -2.66699 -87.5 -8s-51.5 -13.666 -79.5 -24.999l-13 124c31.333 12.667 64 22.334 98 29.001
s70.667 10 110 10zM371 258.993c-7.33301 3.33301 -18.332 6.33301 -32.999 9s-32.334 4 -53.001 4c-67.333 0 -101 -26.667 -101 -80c0 -30 8 -50.833 24 -62.5s36.667 -17.5 62 -17.5c28.667 0 52.667 7.33301 72 22s29 34 29 58v67zM733.001 364.993
c-1.33301 44.667 -11.5 76.333 -30.5 95s-44.5 28 -76.5 28c-37.333 0 -64.333 -9.5 -81 -28.5s-26.667 -50.5 -30 -94.5h218z" />
    <glyph glyph-name="ccedilla" unicode="&#xe7;" horiz-adv-x="493" 
d="M249 -7c-70.667 10.667 -123.999 41.333 -159.999 92s-54 123 -54 217c0 50 5.33301 94.5 16 133.5s27.167 71.833 49.5 98.5s51 47 86 61s76.833 21 125.5 21c25.333 0 51.166 -2.5 77.499 -7.5s49.166 -11.167 68.499 -18.5l-9 -132
c-15.333 5.33301 -32 9.83301 -50 13.5s-35.667 5.5 -53 5.5c-28 0 -51.667 -3.16699 -71 -9.5s-34.833 -16.333 -46.5 -30s-20 -31.667 -25 -54s-7.5 -49.5 -7.5 -81.5c0 -65.333 12.667 -111.833 38 -139.5s61.666 -41.5 108.999 -41.5
c40.667 0 77.334 7.66699 110.001 23l11 -121c-27.333 -17.333 -63.666 -28 -108.999 -32l-32 -180h-138z" />
    <glyph glyph-name="egrave" unicode="&#xe8;" horiz-adv-x="586" 
d="M337 -11c-104.667 0 -181.166 27.1641 -229.499 81.4971s-72.5 134.5 -72.5 240.5c0 96.667 21.667 171.834 65 225.501s110.666 80.5 201.999 80.5c77.333 0 138.333 -23 183 -69s67 -117 67 -213c0 -11.333 -0.333008 -23.666 -1 -36.999s-1.66699 -25.333 -3 -36h-353
c4 -50.667 18.833 -86.5 44.5 -107.5s64.5 -31.5 116.5 -31.5c56 0 110 10 162 30l17 -125c-25.333 -11.333 -55 -20.666 -89 -27.999s-70.333 -11 -109 -11zM410.001 364.997c-1.33301 44.667 -11.332 76.333 -29.999 95s-44.334 28 -77.001 28
c-37.333 0 -64.333 -9.5 -81 -28.5s-26.667 -50.5 -30 -94.5h218zM260.002 655.996l-120 145h177l60 -145h-117z" />
    <glyph glyph-name="eacute" unicode="&#xe9;" horiz-adv-x="586" 
d="M337 -11c-104.667 0 -181.166 27.1641 -229.499 81.4971s-72.5 134.5 -72.5 240.5c0 96.667 21.667 171.834 65 225.501s110.666 80.5 201.999 80.5c77.333 0 138.333 -23 183 -69s67 -117 67 -213c0 -11.333 -0.333008 -23.666 -1 -36.999s-1.66699 -25.333 -3 -36h-353
c4 -50.667 18.833 -86.5 44.5 -107.5s64.5 -31.5 116.5 -31.5c56 0 110 10 162 30l17 -125c-25.333 -11.333 -55 -20.666 -89 -27.999s-70.333 -11 -109 -11zM410.001 364.997c-1.33301 44.667 -11.332 76.333 -29.999 95s-44.334 28 -77.001 28
c-37.333 0 -64.333 -9.5 -81 -28.5s-26.667 -50.5 -30 -94.5h218zM458.002 800.996l-120 -145h-117l59 145h178z" />
    <glyph glyph-name="ecircumflex" unicode="&#xea;" horiz-adv-x="586" 
d="M337 -11c-104.667 0 -181.166 27.1641 -229.499 81.4971s-72.5 134.5 -72.5 240.5c0 96.667 21.667 171.834 65 225.501s110.666 80.5 201.999 80.5c77.333 0 138.333 -23 183 -69s67 -117 67 -213c0 -11.333 -0.333008 -23.666 -1 -36.999s-1.66699 -25.333 -3 -36h-353
c4 -50.667 18.833 -86.5 44.5 -107.5s64.5 -31.5 116.5 -31.5c56 0 110 10 162 30l17 -125c-25.333 -11.333 -55 -20.666 -89 -27.999s-70.333 -11 -109 -11zM410.001 364.997c-1.33301 44.667 -11.332 76.333 -29.999 95s-44.334 28 -77.001 28
c-37.333 0 -64.333 -9.5 -81 -28.5s-26.667 -50.5 -30 -94.5h218zM369.002 800.996l100 -145h-115l-52 82l-51 -82h-115l98 145h135z" />
    <glyph glyph-name="edieresis" unicode="&#xeb;" horiz-adv-x="586" 
d="M337 -11c-104.667 0 -181.166 27.1641 -229.499 81.4971s-72.5 134.5 -72.5 240.5c0 96.667 21.667 171.834 65 225.501s110.666 80.5 201.999 80.5c77.333 0 138.333 -23 183 -69s67 -117 67 -213c0 -11.333 -0.333008 -23.666 -1 -36.999s-1.66699 -25.333 -3 -36h-353
c4 -50.667 18.833 -86.5 44.5 -107.5s64.5 -31.5 116.5 -31.5c56 0 110 10 162 30l17 -125c-25.333 -11.333 -55 -20.666 -89 -27.999s-70.333 -11 -109 -11zM410.001 364.997c-1.33301 44.667 -11.332 76.333 -29.999 95s-44.334 28 -77.001 28
c-37.333 0 -64.333 -9.5 -81 -28.5s-26.667 -50.5 -30 -94.5h218zM268.002 737.996c0 -21.333 -5.16699 -37.501 -15.5 -48.501s-27.166 -16.5 -50.499 -16.5c-22 0 -38.333 5 -49 15s-16 26.667 -16 50c0 44 21.667 66 65 66c23.333 0 40.166 -5.66699 50.499 -17
s15.5 -27.666 15.5 -48.999zM450.002 737.995c0 -21.333 -5 -37.501 -15 -48.501s-26.667 -16.5 -50 -16.5c-22 0 -38.5 5 -49.5 15s-16.5 26.667 -16.5 50c0 44 22 66 66 66c23.333 0 40 -5.66699 50 -17s15 -27.666 15 -48.999z" />
    <glyph glyph-name="igrave" unicode="&#xec;" horiz-adv-x="319" 
d="M80 0v602l159 7v-609h-159zM120 656l-120 145h177l60 -145h-117z" />
    <glyph glyph-name="iacute" unicode="&#xed;" horiz-adv-x="319" 
d="M80 0v602l159 7v-609h-159zM318 801l-120 -145h-117l59 145h178z" />
    <glyph glyph-name="icircumflex" unicode="&#xee;" horiz-adv-x="319" 
d="M80 0v602l159 7v-609h-159zM229 801l100 -145h-115l-52 82l-51 -82h-115l98 145h135z" />
    <glyph glyph-name="idieresis" unicode="&#xef;" horiz-adv-x="319" 
d="M80 0v602l159 7v-609h-159zM139 738c0 -21.333 -5.16699 -37.501 -15.5 -48.501s-27.166 -16.5 -50.499 -16.5c-22 0 -38.333 5 -49 15s-16 26.667 -16 50c0 44 21.667 66 65 66c23.333 0 40.166 -5.66699 50.499 -17s15.5 -27.666 15.5 -48.999zM321 737.999
c0 -21.333 -5 -37.501 -15 -48.501s-26.667 -16.5 -50 -16.5c-22 0 -38.5 5 -49.5 15s-16.5 26.667 -16.5 50c0 44 22 66 66 66c23.333 0 40 -5.66699 50 -17s15 -27.666 15 -48.999z" />
    <glyph glyph-name="eth" unicode="&#xf0;" horiz-adv-x="625" 
d="M420 687c24 -23.333 46.3301 -48.8311 66.9971 -76.498s38.667 -56.5 54 -86.5s27.333 -61 36 -93s13 -64 13 -96c0 -62 -5.83301 -115 -17.5 -159s-29 -79.833 -52 -107.5s-51.833 -47.834 -86.5 -60.501s-74.667 -19 -120 -19c-41.333 0 -79.166 4.66699 -113.499 14
s-63.666 25.166 -87.999 47.499s-43.333 52.333 -57 90s-20.5 84.834 -20.5 141.501c0 88.667 19.833 155.167 59.5 199.5s98.834 66.5 177.501 66.5c48 0 89.333 -8.66699 124 -26l2 2c-24.667 36.667 -53 69.667 -85 99l-89 -54l-54 60l75 47
c-14 9.33301 -28.167 18.166 -42.5 26.499l-43.5 24.5l108 71c30 -15.333 58.667 -33.333 86 -54l85 53l52 -67zM195.997 276.002c0 -32 2.5 -58.167 7.5 -78.5s12.167 -36.5 21.5 -48.5s21.166 -20.167 35.499 -24.5s30.5 -6.5 48.5 -6.5c40.667 0 70.834 14 90.501 42
s29.5 74.667 29.5 140c0 42.667 -10 73 -30 91s-49.667 27 -89 27c-42 0 -71.5 -10.5 -88.5 -31.5s-25.5 -57.833 -25.5 -110.5z" />
    <glyph glyph-name="ntilde" unicode="&#xf1;" horiz-adv-x="629" 
d="M418 0v386.001c0 34 -8.33301 58.167 -25 72.5s-41 21.5 -73 21.5c-19.333 0 -38.5 -4 -57.5 -12s-33.833 -19.333 -44.5 -34v-434h-156v603l112 7l23 -52c22.667 19.333 48.167 34.166 76.5 44.499s58.5 15.5 90.5 15.5c64.667 0 115.667 -19.667 153 -59
s56 -97 56 -173v-386h-155zM153 669.001c1.33301 38.667 11.1689 70.666 29.502 95.999s42.833 38 73.5 38c16.667 0 31.167 -2.66699 43.5 -8s23.5 -11.333 33.5 -18l28 -18c8.66699 -5.33301 18.334 -8 29.001 -8c9.33301 0 16.666 3.66699 21.999 11
s9.66602 17.333 12.999 30l71 -1c-1.33301 -40 -11.5 -72.167 -30.5 -96.5s-43.5 -36.5 -73.5 -36.5c-16.667 0 -31 2.66699 -43 8s-23 11.333 -33 18s-19.5 12.667 -28.5 18s-18.5 8 -28.5 8c-9.33301 0 -16.833 -4.16699 -22.5 -12.5s-9.83398 -18.166 -12.501 -29.499z
" />
    <glyph glyph-name="ograve" unicode="&#xf2;" horiz-adv-x="624" 
d="M590 301c0 -56 -5.33301 -103.833 -16 -143.5s-27.334 -72.167 -50.001 -97.5s-51.5 -44 -86.5 -56s-76.5 -18 -124.5 -18s-89.5 6 -124.5 18s-63.833 30.667 -86.5 56s-39.5 57.833 -50.5 97.5s-16.5 87.5 -16.5 143.5c0 110.667 22.333 191 67 241s115 75 211 75
c48 0 89.5 -6 124.5 -18s63.833 -30.833 86.5 -56.5s39.334 -58.5 50.001 -98.5s16 -87.667 16 -143zM196 301c0 -37.333 2.16797 -68.167 6.50098 -92.5s11.166 -43.5 20.499 -57.5s21.333 -23.833 36 -29.5s32.667 -8.5 54 -8.5s39.333 2.83301 54 8.5
s26.667 15.667 36 30s16 33.5 20 57.5s6 54.667 6 92c0 36.667 -2 67.167 -6 91.5s-10.667 43.666 -20 57.999s-21.333 24.333 -36 30s-32.667 8.5 -54 8.5s-39.5 -2.83301 -54.5 -8.5s-27.167 -15.667 -36.5 -30s-16 -33.666 -20 -57.999s-6 -54.833 -6 -91.5z
M271.001 655.999l-120 145h177l60 -145h-117z" />
    <glyph glyph-name="oacute" unicode="&#xf3;" horiz-adv-x="624" 
d="M590 301c0 -56 -5.33301 -103.833 -16 -143.5s-27.334 -72.167 -50.001 -97.5s-51.5 -44 -86.5 -56s-76.5 -18 -124.5 -18s-89.5 6 -124.5 18s-63.833 30.667 -86.5 56s-39.5 57.833 -50.5 97.5s-16.5 87.5 -16.5 143.5c0 110.667 22.333 191 67 241s115 75 211 75
c48 0 89.5 -6 124.5 -18s63.833 -30.833 86.5 -56.5s39.334 -58.5 50.001 -98.5s16 -87.667 16 -143zM196 301c0 -37.333 2.16797 -68.167 6.50098 -92.5s11.166 -43.5 20.499 -57.5s21.333 -23.833 36 -29.5s32.667 -8.5 54 -8.5s39.333 2.83301 54 8.5
s26.667 15.667 36 30s16 33.5 20 57.5s6 54.667 6 92c0 36.667 -2 67.167 -6 91.5s-10.667 43.666 -20 57.999s-21.333 24.333 -36 30s-32.667 8.5 -54 8.5s-39.5 -2.83301 -54.5 -8.5s-27.167 -15.667 -36.5 -30s-16 -33.666 -20 -57.999s-6 -54.833 -6 -91.5z
M469.001 800.999l-120 -145h-117l59 145h178z" />
    <glyph glyph-name="ocircumflex" unicode="&#xf4;" horiz-adv-x="624" 
d="M590 301c0 -56 -5.33301 -103.833 -16 -143.5s-27.334 -72.167 -50.001 -97.5s-51.5 -44 -86.5 -56s-76.5 -18 -124.5 -18s-89.5 6 -124.5 18s-63.833 30.667 -86.5 56s-39.5 57.833 -50.5 97.5s-16.5 87.5 -16.5 143.5c0 110.667 22.333 191 67 241s115 75 211 75
c48 0 89.5 -6 124.5 -18s63.833 -30.833 86.5 -56.5s39.334 -58.5 50.001 -98.5s16 -87.667 16 -143zM196 301c0 -37.333 2.16797 -68.167 6.50098 -92.5s11.166 -43.5 20.499 -57.5s21.333 -23.833 36 -29.5s32.667 -8.5 54 -8.5s39.333 2.83301 54 8.5
s26.667 15.667 36 30s16 33.5 20 57.5s6 54.667 6 92c0 36.667 -2 67.167 -6 91.5s-10.667 43.666 -20 57.999s-21.333 24.333 -36 30s-32.667 8.5 -54 8.5s-39.5 -2.83301 -54.5 -8.5s-27.167 -15.667 -36.5 -30s-16 -33.666 -20 -57.999s-6 -54.833 -6 -91.5z
M379.001 800.999l100 -145h-115l-52 82l-51 -82h-115l98 145h135z" />
    <glyph glyph-name="otilde" unicode="&#xf5;" horiz-adv-x="624" 
d="M590 301c0 -56 -5.33301 -103.833 -16 -143.5s-27.334 -72.167 -50.001 -97.5s-51.5 -44 -86.5 -56s-76.5 -18 -124.5 -18s-89.5 6 -124.5 18s-63.833 30.667 -86.5 56s-39.5 57.833 -50.5 97.5s-16.5 87.5 -16.5 143.5c0 110.667 22.333 191 67 241s115 75 211 75
c48 0 89.5 -6 124.5 -18s63.833 -30.833 86.5 -56.5s39.334 -58.5 50.001 -98.5s16 -87.667 16 -143zM196 301c0 -37.333 2.16797 -68.167 6.50098 -92.5s11.166 -43.5 20.499 -57.5s21.333 -23.833 36 -29.5s32.667 -8.5 54 -8.5s39.333 2.83301 54 8.5
s26.667 15.667 36 30s16 33.5 20 57.5s6 54.667 6 92c0 36.667 -2 67.167 -6 91.5s-10.667 43.666 -20 57.999s-21.333 24.333 -36 30s-32.667 8.5 -54 8.5s-39.5 -2.83301 -54.5 -8.5s-27.167 -15.667 -36.5 -30s-16 -33.666 -20 -57.999s-6 -54.833 -6 -91.5z
M145.001 668.999c1.33301 38.667 11.1689 70.666 29.502 95.999s42.833 38 73.5 38c16.667 0 31.167 -2.66699 43.5 -8s23.5 -11.333 33.5 -18l28 -18c8.66699 -5.33301 18.334 -8 29.001 -8c9.33301 0 16.666 3.66699 21.999 11s9.66602 17.333 12.999 30l71 -1
c-1.33301 -40 -11.5 -72.167 -30.5 -96.5s-43.5 -36.5 -73.5 -36.5c-16.667 0 -31 2.66699 -43 8s-23 11.333 -33 18s-19.5 12.667 -28.5 18s-18.5 8 -28.5 8c-9.33301 0 -16.833 -4.16699 -22.5 -12.5s-9.83398 -18.166 -12.501 -29.499z" />
    <glyph glyph-name="odieresis" unicode="&#xf6;" horiz-adv-x="624" 
d="M590 301c0 -56 -5.33301 -103.833 -16 -143.5s-27.334 -72.167 -50.001 -97.5s-51.5 -44 -86.5 -56s-76.5 -18 -124.5 -18s-89.5 6 -124.5 18s-63.833 30.667 -86.5 56s-39.5 57.833 -50.5 97.5s-16.5 87.5 -16.5 143.5c0 110.667 22.333 191 67 241s115 75 211 75
c48 0 89.5 -6 124.5 -18s63.833 -30.833 86.5 -56.5s39.334 -58.5 50.001 -98.5s16 -87.667 16 -143zM196 301c0 -37.333 2.16797 -68.167 6.50098 -92.5s11.166 -43.5 20.499 -57.5s21.333 -23.833 36 -29.5s32.667 -8.5 54 -8.5s39.333 2.83301 54 8.5
s26.667 15.667 36 30s16 33.5 20 57.5s6 54.667 6 92c0 36.667 -2 67.167 -6 91.5s-10.667 43.666 -20 57.999s-21.333 24.333 -36 30s-32.667 8.5 -54 8.5s-39.5 -2.83301 -54.5 -8.5s-27.167 -15.667 -36.5 -30s-16 -33.666 -20 -57.999s-6 -54.833 -6 -91.5z
M287.001 737.999c0 -21.333 -5.16699 -37.501 -15.5 -48.501s-27.166 -16.5 -50.499 -16.5c-22 0 -38.333 5 -49 15s-16 26.667 -16 50c0 44 21.667 66 65 66c23.333 0 40.166 -5.66699 50.499 -17s15.5 -27.666 15.5 -48.999zM469.001 737.998
c0 -21.333 -5 -37.501 -15 -48.501s-26.667 -16.5 -50 -16.5c-22 0 -38.5 5 -49.5 15s-16.5 26.667 -16.5 50c0 44 22 66 66 66c23.333 0 40 -5.66699 50 -17s15 -27.666 15 -48.999z" />
    <glyph glyph-name="divide" unicode="&#xf7;" horiz-adv-x="602" 
d="M397 526c0 -50.667 -32 -76 -96 -76c-31.333 0 -55.166 5.33301 -71.499 16s-24.5 30.667 -24.5 60c0 25.333 8.16699 44.5 24.5 57.5s40.166 19.5 71.499 19.5c64 0 96 -25.667 96 -77zM397 145c0 -50 -32 -74.999 -96 -74.999c-31.333 0 -55.166 5.16699 -71.499 15.5
s-24.5 30.166 -24.5 59.499c0 25.333 8.16699 44.5 24.5 57.5s40.166 19.5 71.499 19.5c64 0 96 -25.667 96 -77zM58 264.001v143h486v-143h-486z" />
    <glyph glyph-name="oslash" unicode="&#xf8;" horiz-adv-x="624" 
d="M31 46l43 53.002c-13.333 24.667 -23.166 53.667 -29.499 87s-9.5 71.666 -9.5 114.999c0 110.667 22.333 191 67 241s115 75 211 75c71.333 0 127.666 -13.333 168.999 -40l37 45l65 -59l-40 -50c30 -48.667 45 -119.334 45 -212.001
c0 -56 -5.33301 -103.833 -16 -143.5s-27.167 -72.167 -49.5 -97.5s-51 -44 -86 -56s-76.5 -18 -124.5 -18c-77.333 0 -137.333 15 -180 45l-37 -45zM429 301.002c0 15.333 -0.332031 29.333 -0.999023 42s-1 24.667 -1 36l-207 -225c9.33301 -15.333 21.666 -26 36.999 -32
s34 -9 56 -9c21.333 0 39.333 2.83301 54 8.5s26.667 15.667 36 30s16 33.5 20 57.5s6 54.667 6 92zM195.001 301.002c0 -12 0.166016 -23.001 0.499023 -33.001s0.5 -19.667 0.5 -29l202 218c-9.33301 11.333 -21 19.5 -35 24.5s-30.667 7.5 -50 7.5
c-21.333 0 -39.5 -2.83301 -54.5 -8.5s-27.167 -15.667 -36.5 -30s-16.166 -33.666 -20.499 -57.999s-6.5 -54.833 -6.5 -91.5z" />
    <glyph glyph-name="ugrave" unicode="&#xf9;" horiz-adv-x="622" 
d="M567 214c0 -74 -20.8311 -130.001 -62.498 -168.001s-105.834 -57 -192.501 -57s-150.834 19.333 -192.501 58s-62.5 94.334 -62.5 167.001v392h155v-389c0 -60.667 33.333 -91 100 -91s100 30.333 100 91v389h155v-392zM271.002 655.999l-120 145h177l60 -145h-117z" />
    <glyph glyph-name="uacute" unicode="&#xfa;" horiz-adv-x="622" 
d="M567 214c0 -74 -20.8311 -130.001 -62.498 -168.001s-105.834 -57 -192.501 -57s-150.834 19.333 -192.501 58s-62.5 94.334 -62.5 167.001v392h155v-389c0 -60.667 33.333 -91 100 -91s100 30.333 100 91v389h155v-392zM468.002 800.999l-120 -145h-117l59 145h178z" />
    <glyph glyph-name="ucircumflex" unicode="&#xfb;" horiz-adv-x="622" 
d="M567 214c0 -74 -20.8311 -130.001 -62.498 -168.001s-105.834 -57 -192.501 -57s-150.834 19.333 -192.501 58s-62.5 94.334 -62.5 167.001v392h155v-389c0 -60.667 33.333 -91 100 -91s100 30.333 100 91v389h155v-392zM379.002 800.999l100 -145h-115l-52 82l-51 -82
h-115l98 145h135z" />
    <glyph glyph-name="udieresis" unicode="&#xfc;" horiz-adv-x="622" 
d="M567 214c0 -74 -20.8311 -130.001 -62.498 -168.001s-105.834 -57 -192.501 -57s-150.834 19.333 -192.501 58s-62.5 94.334 -62.5 167.001v392h155v-389c0 -60.667 33.333 -91 100 -91s100 30.333 100 91v389h155v-392zM286.002 737.999
c0 -21.333 -5.16699 -37.501 -15.5 -48.501s-27.166 -16.5 -50.499 -16.5c-22 0 -38.333 5 -49 15s-16 26.667 -16 50c0 44 21.667 66 65 66c23.333 0 40.166 -5.66699 50.499 -17s15.5 -27.666 15.5 -48.999zM468.002 737.998c0 -21.333 -5 -37.501 -15 -48.501
s-26.667 -16.5 -50 -16.5c-22 0 -38.5 5 -49.5 15s-16.5 26.667 -16.5 50c0 44 22 66 66 66c23.333 0 40 -5.66699 50 -17s15 -27.666 15 -48.999z" />
    <glyph glyph-name="yacute" unicode="&#xfd;" horiz-adv-x="653" 
d="M181 -52c21.333 0 39.666 3.83301 54.999 11.5s28 23.167 38 46.5l3 8l-261 592h177l132 -370l26 -76h3l19 78l99 368h165l-207 -598c-21.333 -62.667 -50.5 -107.667 -87.5 -135s-81.5 -41 -133.5 -41c-18.667 0 -36.667 1.5 -54 4.5s-33.666 7.83301 -48.999 14.5
l12 110c21.333 -8.66699 42.333 -13 63 -13zM486 801l-120 -145h-117l59 145h178z" />
    <glyph glyph-name="thorn" unicode="&#xfe;" horiz-adv-x="635" 
d="M600 304c0 -53.333 -5.5 -99.667 -16.5 -139s-26.667 -72 -47 -98s-44.833 -45.333 -73.5 -58s-61 -19 -97 -19c-26.667 0 -52 3.33301 -76 10s-46 18.667 -66 36l-3 -1l2 -81v-108h-156v932l156 8v-145l-2 -80l3 -2c20 18 43.167 32.167 69.5 42.5
s54.833 15.5 85.5 15.5c34.667 0 65.667 -5.5 93 -16.5s50.5 -28.667 69.5 -53s33.5 -56.5 43.5 -96.5s15 -89 15 -147zM438 304.999c0 34.667 -2.16797 63.333 -6.50098 86s-11 40.5 -20 53.5s-20.333 22 -34 27s-30.167 7.5 -49.5 7.5
c-23.333 0 -43.833 -4.33301 -61.5 -13s-32.167 -20.667 -43.5 -36v-260c9.33301 -14.667 22.333 -27 39 -37s37.334 -15 62.001 -15c17.333 0 33 2.5 47 7.5s26 14.333 36 28s17.667 32.667 23 57s8 55.833 8 94.5z" />
    <glyph glyph-name="ydieresis" unicode="&#xff;" horiz-adv-x="653" 
d="M181 -52c21.333 0 39.666 3.83301 54.999 11.5s28 23.167 38 46.5l3 8l-261 592h177l132 -370l26 -76h3l19 78l99 368h165l-207 -598c-21.333 -62.667 -50.5 -107.667 -87.5 -135s-81.5 -41 -133.5 -41c-18.667 0 -36.667 1.5 -54 4.5s-33.666 7.83301 -48.999 14.5
l12 110c21.333 -8.66699 42.333 -13 63 -13zM302 738c0 -21.333 -5.16699 -37.501 -15.5 -48.501s-27.166 -16.5 -50.499 -16.5c-22 0 -38.333 5 -49 15s-16 26.667 -16 50c0 44 21.667 66 65 66c23.333 0 40.166 -5.66699 50.499 -17s15.5 -27.666 15.5 -48.999z
M484 737.999c0 -21.333 -5 -37.501 -15 -48.501s-26.667 -16.5 -50 -16.5c-22 0 -38.5 5 -49.5 15s-16.5 26.667 -16.5 50c0 44 22 66 66 66c23.333 0 40 -5.66699 50 -17s15 -27.666 15 -48.999z" />
    <glyph glyph-name="dotlessi" unicode="&#x131;" horiz-adv-x="319" 
d="M80 0v602l159 7v-609h-159z" />
    <glyph glyph-name="Lslash" unicode="&#x141;" horiz-adv-x="603" 
d="M585 152l-4 -152h-475v278l-69 -29l-12 133l81 35v333h170v-268l182 77l14 -139l-196 -79v-189h309z" />
    <glyph glyph-name="lslash" unicode="&#x142;" horiz-adv-x="373" 
d="M29 449l77 37v293l157 7v-235l83 41v-129l-83 -43v-420h-157v354l-76 -38z" />
    <glyph glyph-name="OE" unicode="&#x152;" horiz-adv-x="1070" 
d="M540 0l0.00390625 59l-2 1c-22.667 -25.333 -50.334 -44 -83.001 -56s-70.334 -18 -113.001 -18c-100 0 -174.833 31.333 -224.5 94s-74.5 161 -74.5 295s24.5 232 73.5 294s124.833 93 227.5 93c39.333 0 75.666 -5.33301 108.999 -16s61.666 -27.667 84.999 -51l2 1v54
h478l3 -149h-329v-149h276v-134h-276v-171h344l-3 -147h-493zM526.004 375c0 47.333 -2.49902 86.333 -7.49902 117s-13.5 54.834 -25.5 72.501s-27.667 29.834 -47 36.501s-43.333 10 -72 10s-52.834 -3.33301 -72.501 -10s-35.5 -18.834 -47.5 -36.501
s-20.667 -41.834 -26 -72.501s-8 -69.667 -8 -117s2.66699 -86.333 8 -117s14.166 -55 26.499 -73s28.333 -30.5 48 -37.5s43.834 -10.5 72.501 -10.5c28 0 51.667 3.5 71 10.5s35 19.5 47 37.5s20.5 42.333 25.5 73s7.5 69.667 7.5 117z" />
    <glyph glyph-name="oe" unicode="&#x153;" horiz-adv-x="982" 
d="M738 -11c-54.667 0 -99.833 6.99805 -135.5 20.998s-64.5 35.333 -86.5 64c-20 -30 -47.167 -52.167 -81.5 -66.5s-77.833 -21.5 -130.5 -21.5c-90.667 0 -157.667 24.667 -201 74s-65 129.666 -65 240.999c0 110.667 22 191 66 241s110.667 75 200 75
c52 0 94.667 -6.83301 128 -20.5s60 -33.834 80 -60.501c19.333 26 44.5 46 75.5 60s69.5 21 115.5 21c37.333 0 71 -5.66699 101 -17s55.667 -28.666 77 -51.999s37.833 -52.666 49.5 -87.999s17.5 -77 17.5 -125c0 -11.333 -0.333008 -23.666 -1 -36.999
s-1.66699 -25.333 -3 -36h-352c3.33301 -50.667 17.833 -86.5 43.5 -107.5s64.5 -31.5 116.5 -31.5c28.667 0 56.5 2.83301 83.5 8.5s53.167 13.5 78.5 23.5l17 -127c-25.333 -11.333 -54.833 -20.666 -88.5 -27.999s-68.5 -11 -104.5 -11zM198.001 300.998
c0 -37.333 2.16699 -68.167 6.5 -92.5s11.166 -43.5 20.499 -57.5s21.5 -23.833 36.5 -29.5s33.167 -8.5 54.5 -8.5s39.333 2.83301 54 8.5s26.5 15.667 35.5 30s15.5 33.5 19.5 57.5s6 54.667 6 92c0 36.667 -2 67.167 -6 91.5s-10.5 43.666 -19.5 57.999
s-20.833 24.333 -35.5 30s-32.667 8.5 -54 8.5s-39.5 -2.83301 -54.5 -8.5s-27.167 -15.667 -36.5 -30s-16.166 -33.666 -20.499 -57.999s-6.5 -54.833 -6.5 -91.5zM806.001 364.997c-1.33301 44.667 -11.502 76.333 -30.502 95s-44.5 28 -76.5 28
c-37.333 0 -64.166 -9.5 -80.499 -28.5s-26.166 -50.5 -29.499 -94.5h217z" />
    <glyph glyph-name="Scaron" unicode="&#x160;" horiz-adv-x="578" 
d="M549 225c0 -74.667 -24.333 -133.163 -73 -175.496s-117 -63.5 -205 -63.5c-44 0 -85.5 5 -124.5 15s-74.833 23.667 -107.5 41l22 145c33.333 -17.333 67 -30.833 101 -40.5s69.667 -14.5 107 -14.5c41.333 0 71.333 7.16699 90 21.5s28 34.5 28 60.5
c0 19.333 -8.5 35 -25.5 47s-38.333 22.833 -64 32.5l-83 30c-29.667 10.333 -57.334 24.166 -83.001 41.499s-47 39.166 -64 65.499s-25.5 60.5 -25.5 102.5c0 32 5.33301 61.833 16 89.5s27 52 49 73s50.167 37.5 84.5 49.5s75.166 18 122.499 18
c36.667 0 73.5 -3.5 110.5 -10.5s70.167 -16.5 99.5 -28.5l-21 -142c-31.333 10 -62.166 17.833 -92.499 23.5s-59.833 8.5 -88.5 8.5c-23.333 0 -42.5 -1.83301 -57.5 -5.5s-27 -8.83398 -36 -15.501s-15.333 -14.334 -19 -23.001s-5.5 -18 -5.5 -28
c0 -19.333 8.5 -34.833 25.5 -46.5s38.333 -22.167 64 -31.5l83 -29c29.667 -10 57.334 -23.5 83.001 -40.5s47 -39 64 -66s25.5 -61.5 25.5 -103.5zM230 792.004l-104 121h135l52 -60l53 60h135l-106 -121h-165z" />
    <glyph glyph-name="scaron" unicode="&#x161;" horiz-adv-x="497" 
d="M465 190c0 -30 -4.33496 -57.498 -13.002 -82.498s-22.334 -46.333 -41.001 -64s-42.667 -31.334 -72 -41.001s-64.333 -14.5 -105 -14.5c-36.667 0 -71.167 3.5 -103.5 10.5s-61.166 17.5 -86.499 31.5l16 128c25.333 -14.667 54 -25.5 86 -32.5s61 -10.5 87 -10.5
c31.333 0 53.833 5.66699 67.5 17s20.5 26 20.5 44c0 16 -7 28.5 -21 37.5s-31.333 17 -52 24l-67.5 22c-24.333 7.66699 -46.833 18.167 -67.5 31.5s-38 30.833 -52 52.5s-21 50.167 -21 85.5c0 27.333 4.66699 52.5 14 75.5s23.5 42.667 42.5 59
s42.833 29.166 71.5 38.499s62.667 14 102 14c30.667 0 60.667 -2.83301 90 -8.5s56.666 -13.834 81.999 -24.501l-13 -127c-25.333 10.667 -53 18.5 -83 23.5s-56.333 7.5 -79 7.5c-25.333 0 -44.833 -4.66699 -58.5 -14s-20.5 -21.666 -20.5 -36.999
s6.83301 -27.166 20.5 -35.499s30.834 -15.833 51.501 -22.5l66.5 -21c23.667 -7.33301 45.834 -17.5 66.501 -30.5s37.834 -30.333 51.501 -52s20.5 -49.834 20.5 -84.501zM190.998 656.002l-97 145h115l51 -86l50 86h117l-99 -145h-137z" />
    <glyph glyph-name="Ydieresis" unicode="&#x178;" horiz-adv-x="698" 
d="M196 750l126 -284l31 -74h3l30 75l121 283h185l-255 -511v-239h-172v239l-259 511h190zM318 853c0 -20 -5 -35.166 -15 -45.499s-26.333 -15.5 -49 -15.5c-22 0 -38.5 4.66699 -49.5 14s-16.5 25 -16.5 47c0 42 22 63 66 63c22.667 0 39 -5.33301 49 -16
s15 -26.334 15 -47.001zM517 853.001c0 -40.667 -21.667 -61 -65 -61c-22 0 -38.333 4.66699 -49 14s-16 25 -16 47c0 42 21.667 63 65 63s65 -21 65 -63z" />
    <glyph glyph-name="Zcaron" unicode="&#x17d;" horiz-adv-x="618" 
d="M35 0v110l291 422l46 64l-1 2h-328l5 152h528v-123l-284 -410l-46 -63l1 -3h332l-3 -151h-541zM234 792l-104 121h135l52 -60l53 60h135l-106 -121h-165z" />
    <glyph glyph-name="zcaron" unicode="&#x17e;" horiz-adv-x="538" 
d="M269 194l-48 -62l1 -3h278l-4 -129h-454v109l222 303l48 63l-1 2h-261l5 129h436v-108zM205 656l-97 145h115l51 -86l50 86h117l-99 -145h-137z" />
    <glyph glyph-name="florin" unicode="&#x192;" horiz-adv-x="427" 
d="M-24 -154l137.999 641h-62l25 118h62l6 34c4 20.667 11.5 40.334 22.5 59.001s25.833 35 44.5 49s40.667 25 66 33s54 12 86 12c17.333 0 34.166 -1.33301 50.499 -4s30.5 -5.66699 42.5 -9l-30 -101c-8 2 -16.5 3.66699 -25.5 5s-17.833 2 -26.5 2
c-23.333 0 -40.666 -3.83301 -51.999 -11.5s-18.666 -18.834 -21.999 -33.501l-7 -35h123l-24 -118h-124l-139 -641h-154z" />
    <glyph glyph-name="circumflex" unicode="&#x2c6;" horiz-adv-x="405" 
d="M270 801l100 -145h-115l-52 82l-51 -82h-115l98 145h135z" />
    <glyph glyph-name="caron" unicode="&#x2c7;" horiz-adv-x="405" 
d="M135 656l-97 145h115l51 -86l50 86h117l-99 -145h-137z" />
    <glyph glyph-name="breve" unicode="&#x2d8;" horiz-adv-x="405" 
d="M362 801c0 -49.333 -12.498 -87.167 -37.498 -113.5s-65.833 -39.5 -122.5 -39.5c-58.667 0 -99.834 13.5 -123.501 40.5s-35.5 64.5 -35.5 112.5h104c0.666992 -27.333 6 -46.5 16 -57.5s23 -16.5 39 -16.5c15.333 0 28.166 5.33301 38.499 16s15.5 30 15.5 58h106z" />
    <glyph glyph-name="dotaccent" unicode="&#x2d9;" horiz-adv-x="405" 
d="M291 738c0 -22.667 -7 -39.5 -21 -50.5s-36.333 -16.5 -67 -16.5c-30 0 -52.167 5 -66.5 15s-21.5 27.333 -21.5 52c0 44.667 29.333 67 88 67c30.667 0 53 -5.83301 67 -17.5s21 -28.167 21 -49.5z" />
    <glyph glyph-name="ring" unicode="&#x2da;" horiz-adv-x="405" 
d="M79 743c0 28 9.5 50.001 28.5 66.001s51.167 24 96.5 24c44 0 76 -8.33301 96 -25s30 -38.334 30 -65.001c0 -30.667 -10 -53.334 -30 -68.001s-52 -22 -96 -22c-42 0 -73.333 6.83301 -94 20.5s-31 36.834 -31 69.501zM154 742.001
c0 -9.33301 3.49902 -16.833 10.499 -22.5s20.833 -8.5 41.5 -8.5c18 0 31 2.66699 39 8s12 13 12 23c0 9.33301 -3.66699 16.833 -11 22.5s-20.666 8.5 -39.999 8.5c-20 0 -33.667 -2.83301 -41 -8.5s-11 -13.167 -11 -22.5z" />
    <glyph glyph-name="ogonek" unicode="&#x2db;" horiz-adv-x="405" 
d="M264 -189c-42.667 0 -73.832 8.83203 -93.499 26.499s-29.5 39.5 -29.5 65.5c0 30 9.66699 54.833 29 74.5s45.666 34.5 78.999 44.5l62 -22c-18 -5.33301 -31.333 -13 -40 -23s-13 -21.667 -13 -35c0 -11.333 3.83301 -20.166 11.5 -26.499s20.5 -9.5 38.5 -9.5
c19.333 0 36 3.66699 50 11l12 -81c-14.667 -7.33301 -30.5 -13.333 -47.5 -18s-36.5 -7 -58.5 -7z" />
    <glyph glyph-name="tilde" unicode="&#x2dc;" horiz-adv-x="405" 
d="M38 669c1.33301 38.667 11.1689 70.666 29.502 95.999s42.833 38 73.5 38c16.667 0 31.167 -2.66699 43.5 -8s23.5 -11.333 33.5 -18l28 -18c8.66699 -5.33301 18.334 -8 29.001 -8c9.33301 0 16.666 3.66699 21.999 11s9.66602 17.333 12.999 30l71 -1
c-1.33301 -40 -11.5 -72.167 -30.5 -96.5s-43.5 -36.5 -73.5 -36.5c-16.667 0 -31 2.66699 -43 8s-23 11.333 -33 18s-19.5 12.667 -28.5 18s-18.5 8 -28.5 8c-9.33301 0 -16.833 -4.16699 -22.5 -12.5s-9.83398 -18.166 -12.501 -29.499z" />
    <glyph glyph-name="hungarumlaut" unicode="&#x2dd;" horiz-adv-x="405" 
d="M275 801l-108 -145h-100l50 145h158zM473 801l-121 -145h-113l74 145h160z" />
    <glyph glyph-name="uni0394" unicode="&#x394;" horiz-adv-x="742" 
d="M713 0h-685l287 753h111zM343 478l-124 -342h298l-120 342l-25 77h-3z" />
    <glyph glyph-name="uni03A9" unicode="&#x3a9;" horiz-adv-x="745" 
d="M373 761c50 0 95.165 -6.33398 135.498 -19.001s74.5 -32 102.5 -58s49.5 -59.167 64.5 -99.5s22.5 -88.166 22.5 -143.499c0 -62.667 -12.667 -119.667 -38 -171s-63.333 -95.333 -114 -132v-3h155v-135h-299v195c17.333 14 33.333 29 48 45s27.334 33.667 38.001 53
s19 40.666 25 63.999s9 49 9 77c0 65.333 -12.333 111.333 -37 138s-62 40 -112 40c-50.667 0 -88.167 -13.333 -112.5 -40s-36.5 -72.667 -36.5 -138c0 -28 3 -53.667 9 -77s14.333 -44.5 25 -63.5s23.334 -36.667 38.001 -53s30.667 -31.5 48 -45.5v-195h-299v135h154l1 3
c-51.333 36 -89.5 79.333 -114.5 130s-37.5 108.334 -37.5 173.001c0 54 7.5 101 22.5 141s36.5 73.333 64.5 100s62.167 46.5 102.5 59.5s85.5 19.5 135.5 19.5z" />
    <glyph glyph-name="uni03BC" unicode="&#x3bc;" horiz-adv-x="628" 
d="M325 -9c-27.333 0 -51.832 5.5 -73.499 16.5s-39.5 27.5 -53.5 49.5l-2 -1c2 -36 4.33301 -71 7 -105s5.66699 -67.333 9 -100l-150 -12v767h156v-389c0 -28 9.33301 -49.833 28 -65.5s43.334 -23.5 74.001 -23.5c29.333 0 53 6.66699 71 20s27 34 27 62v396h154v-602
l-110 -9l-19 43c-14.667 -14.667 -31.834 -26.167 -51.501 -34.5s-41.834 -12.5 -66.501 -12.5z" />
    <glyph glyph-name="pi" unicode="&#x3c0;" horiz-adv-x="681" 
d="M413 473h-140.999v-473h-155v471c-16.667 -1.33301 -30.5 -3.33301 -41.5 -6s-20.833 -6.66699 -29.5 -12l-35 121c15.333 10 37 17.833 65 23.5s61.667 8.5 101 8.5h465v-133h-74v-304c0 -22 4.16699 -37.167 12.5 -45.5s23.833 -12.5 46.5 -12.5v-116
c-42.667 0 -77.834 3.16699 -105.501 9.5s-49.5 16.333 -65.5 30s-27.167 31.5 -33.5 53.5s-9.5 49 -9.5 81v304z" />
    <glyph glyph-name="endash" unicode="&#x2013;" horiz-adv-x="516" 
d="M464 398v-112h-412v112h412z" />
    <glyph glyph-name="emdash" unicode="&#x2014;" horiz-adv-x="697" 
d="M646 398v-112h-594v112h594z" />
    <glyph glyph-name="quoteleft" unicode="&#x2018;" horiz-adv-x="254" 
d="M129 518c-31.333 0 -54.002 8.50293 -68.002 25.5029s-21 39.833 -21 68.5c0 13.333 2.66699 29.166 8 47.499s12.333 37.166 21 56.499s18.334 38.166 29.001 56.499s21.334 34.5 32.001 48.5l56 -14l-25 -120c13.333 -6.66699 25.5 -17 36.5 -31s16.5 -30 16.5 -48
c0 -26 -6.5 -47.5 -19.5 -64.5s-34.833 -25.5 -65.5 -25.5z" />
    <glyph glyph-name="quoteright" unicode="&#x2019;" horiz-adv-x="254" 
d="M125 782c30.667 0 53.166 -8.33301 67.499 -25s21.5 -39.667 21.5 -69c0 -13.333 -2.66699 -29 -8 -47s-12.333 -36.667 -21 -56s-18.5 -38.333 -29.5 -57s-21.833 -35 -32.5 -49l-56 14l26 121c-13.333 6 -25.666 16 -36.999 30s-17 30.333 -17 49
c0 25.333 6.5 46.5 19.5 63.5s35.167 25.5 66.5 25.5z" />
    <glyph glyph-name="quotesinglbase" unicode="&#x201a;" horiz-adv-x="254" 
d="M125 158c30.667 0 53.166 -8.33301 67.499 -25s21.5 -39.667 21.5 -69c0 -13.333 -2.66699 -29 -8 -47s-12.333 -36.667 -21 -56s-18.5 -38.333 -29.5 -57s-21.833 -35 -32.5 -49l-56 14l26 121c-13.333 6 -25.666 16 -36.999 30s-17 30.333 -17 49
c0 25.333 6.5 46.5 19.5 63.5s35.167 25.5 66.5 25.5z" />
    <glyph glyph-name="quotedblleft" unicode="&#x201c;" horiz-adv-x="471" 
d="M129 518c-31.333 0 -54.002 8.50293 -68.002 25.5029s-21 39.833 -21 68.5c0 13.333 2.66699 29.166 8 47.499s12.333 37.166 21 56.499s18.334 38.166 29.001 56.499s21.334 34.5 32.001 48.5l56 -14l-25 -120c13.333 -6.66699 25.5 -17 36.5 -31s16.5 -30 16.5 -48
c0 -26 -6.5 -47.5 -19.5 -64.5s-34.833 -25.5 -65.5 -25.5zM345.998 519.003c-31.333 0 -53.999 8.33398 -67.999 25.001s-21 39.667 -21 69c0 13.333 2.66699 29 8 47s12.333 36.667 21 56s18.5 38.166 29.5 56.499s21.833 34.5 32.5 48.5l56 -13l-26 -121
c13.333 -6 25.666 -16.167 36.999 -30.5s17 -30.5 17 -48.5c0 -25.333 -6.5 -46.5 -19.5 -63.5s-35.167 -25.5 -66.5 -25.5z" />
    <glyph glyph-name="quotedblright" unicode="&#x201d;" horiz-adv-x="471" 
d="M125 780c30.667 0 53.166 -8.33301 67.499 -25s21.5 -39.667 21.5 -69c0 -13.333 -2.66699 -29 -8 -47s-12.333 -36.667 -21 -56s-18.5 -38.333 -29.5 -57s-21.833 -35 -32.5 -49l-56 14l26 121c-13.333 6 -25.666 16 -36.999 30s-17 30.333 -17 49
c0 25.333 6.5 46.5 19.5 63.5s35.167 25.5 66.5 25.5zM342.999 780c30.667 0 53.166 -8.33301 67.499 -25s21.5 -39.667 21.5 -69c0 -13.333 -2.66699 -29 -8 -47s-12.333 -36.667 -21 -56s-18.5 -38.333 -29.5 -57s-21.833 -35 -32.5 -49l-56 14l26 121
c-13.333 6 -25.666 16 -36.999 30s-17 30.333 -17 49c0 25.333 6.5 46.5 19.5 63.5s35.167 25.5 66.5 25.5z" />
    <glyph glyph-name="quotedblbase" unicode="&#x201e;" horiz-adv-x="471" 
d="M343 158c30.667 0 53.166 -8.33301 67.499 -25s21.5 -39.667 21.5 -69c0 -13.333 -2.66699 -29 -8 -47s-12.333 -36.667 -21 -56s-18.5 -38.333 -29.5 -57s-21.833 -35 -32.5 -49l-56 14l26 121c-13.333 6 -25.666 16 -36.999 30s-17 30.333 -17 49
c0 25.333 6.5 46.5 19.5 63.5s35.167 25.5 66.5 25.5zM124.999 158c30.667 0 53.166 -8.33301 67.499 -25s21.5 -39.667 21.5 -69c0 -13.333 -2.66699 -29 -8 -47s-12.333 -36.667 -21 -56s-18.5 -38.333 -29.5 -57s-21.833 -35 -32.5 -49l-56 14l26 121
c-13.333 6 -25.666 16 -36.999 30s-17 30.333 -17 49c0 25.333 6.5 46.5 19.5 63.5s35.167 25.5 66.5 25.5z" />
    <glyph glyph-name="dagger" unicode="&#x2020;" horiz-adv-x="492" 
d="M181 604l-13 182h154l-12 -182l152 11v-146l-152 11l12 -627h-154l13 627l-151 -11v146z" />
    <glyph glyph-name="daggerdbl" unicode="&#x2021;" horiz-adv-x="492" 
d="M462 31l-152 11l12 -189h-154l13 189l-151 -11v145l152 -10l-1 314l-151 -10v145l151 -11l-13 182h154l-12 -182l152 11v-145l-152 10v-314l152 10v-145z" />
    <glyph glyph-name="bullet" unicode="&#x2022;" horiz-adv-x="414" 
d="M48 322c0 106.667 52 160 156 160c106 0 159 -53.333 159 -160c0 -107.333 -53 -161 -159 -161c-104 0 -156 53.667 -156 161z" />
    <glyph glyph-name="ellipsis" unicode="&#x2026;" horiz-adv-x="739" 
d="M693 75c0 -27.333 -6.83301 -48.667 -20.5 -64s-36.5 -23 -68.5 -23s-55 6.5 -69 19.5s-21 35.5 -21 67.5c0 28 7 49.333 21 64s37 22 69 22s54.833 -7.33301 68.5 -22s20.5 -36 20.5 -64zM462 74.999c0 -27.333 -6.83301 -48.667 -20.5 -64s-36.5 -23 -68.5 -23
s-55 6.5 -69 19.5s-21 35.5 -21 67.5c0 28 7 49.333 21 64s37 22 69 22s54.833 -7.33301 68.5 -22s20.5 -36 20.5 -64zM224 74.998c0 -27.333 -6.83301 -48.667 -20.5 -64s-36.5 -23 -68.5 -23s-55 6.5 -69 19.5s-21 35.5 -21 67.5c0 28 7 49.333 21 64s37 22 69 22
s54.833 -7.33301 68.5 -22s20.5 -36 20.5 -64z" />
    <glyph glyph-name="perthousand" unicode="&#x2030;" horiz-adv-x="1073" 
d="M342 585c0 -117.333 -51.999 -176 -155.999 -176c-54 0 -93.333 14.667 -118 44s-37 73.333 -37 132c0 60.667 12.167 104.834 36.5 132.501s64.166 41.5 119.499 41.5c51.333 0 90 -13.333 116 -40s39 -71.334 39 -134.001zM239.001 585
c0 31.333 -4.33301 52.166 -13 62.499s-21.667 15.5 -39 15.5c-18 0 -31.333 -5.16699 -40 -15.5s-13 -31.166 -13 -62.499s4.33301 -52.166 13 -62.499s22 -15.5 40 -15.5c17.333 0 30.333 5.16699 39 15.5s13 31.166 13 62.499zM612.001 644l-407 -617l-90 71l408 617z
M707.001 165c0 -116.667 -51.999 -175 -155.999 -175c-54 0 -93.333 14.5 -118 43.5s-37 72.833 -37 131.5c0 60.667 12.167 105.334 36.5 134.001s64.166 43 119.499 43c51.333 0 90 -13.833 116 -41.5s39 -72.834 39 -135.501zM605.002 165
c0 30.667 -4.5 51.167 -13.5 61.5s-22.167 15.5 -39.5 15.5c-18 0 -31.333 -5.16699 -40 -15.5s-13 -30.833 -13 -61.5c0 -31.333 4.33301 -52 13 -62s22 -15 40 -15s31.333 5 40 15s13 30.667 13 62zM1042 165c0 -116.667 -52.333 -175 -157 -175
c-54 0 -93.167 14.5 -117.5 43.5s-36.5 72.833 -36.5 131.5c0 60.667 12.167 105.334 36.5 134.001s63.833 43 118.5 43c52 0 91 -13.833 117 -41.5s39 -72.834 39 -135.501zM939.002 165c0 30.667 -4.33301 51.167 -13 61.5s-22 15.5 -40 15.5
c-17.333 0 -30.333 -5.16699 -39 -15.5s-13 -30.833 -13 -61.5c0 -31.333 4.33301 -52 13 -62s21.667 -15 39 -15c18 0 31.333 5 40 15s13 30.667 13 62z" />
    <glyph glyph-name="guilsinglleft" unicode="&#x2039;" horiz-adv-x="394" 
d="M184 320l160 -101v-120l-313 216v11l313 216v-120z" />
    <glyph glyph-name="guilsinglright" unicode="&#x203a;" horiz-adv-x="394" 
d="M51 219l159 101l-159 102v120l312 -216v-11l-312 -216v120z" />
    <glyph glyph-name="fraction" unicode="&#x2044;" horiz-adv-x="306" 
d="M478 750l-498 -750h-109l497 750h110z" />
    <glyph glyph-name="Euro" unicode="&#x20ac;" 
d="M487 266h-200.998c11.333 -52 32.166 -88.667 62.499 -110s70.5 -32 120.5 -32c23.333 0 46.5 3 69.5 9s44.833 13.667 65.5 23l12 -124c-24.667 -13.333 -52.667 -23.666 -84 -30.999s-67 -11 -107 -11c-90.667 0 -161.5 22.667 -212.5 68s-83.5 114.666 -97.5 207.999
h-83v81h76c-0.666992 5.33301 -1 10.666 -1 15.999v29h-75v85h83c7.33301 42 19.666 80.167 36.999 114.5s39.5 63.5 66.5 87.5s58.5 42.5 94.5 55.5s76.333 19.5 121 19.5c36.667 0 69.667 -2.66699 99 -8s55.333 -12.666 78 -21.999l-32 -134
c-17.333 6 -34.333 10.5 -51 13.5s-35.667 4.5 -57 4.5c-99.333 0 -160.333 -43.667 -183 -131h254l-20 -84h-245v-46h229z" />
    <glyph glyph-name="trademark" unicode="&#x2122;" horiz-adv-x="692" 
d="M578 471v102l2 81l-3 1l-26 -77l-39 -107h-66l-40 105l-27 77l-2 -1l1 -81v-100h-79v288h116l39 -106l26 -76h3l25 76l39 106h112v-288h-81zM191 678v-207h-94v207h-77v81h248v-81h-77z" />
    <glyph glyph-name="Omega" unicode="&#x2126;" horiz-adv-x="745" 
d="M373 761c50 0 95.165 -6.33398 135.498 -19.001s74.5 -32 102.5 -58s49.5 -59.167 64.5 -99.5s22.5 -88.166 22.5 -143.499c0 -62.667 -12.667 -119.667 -38 -171s-63.333 -95.333 -114 -132v-3h155v-135h-299v195c17.333 14 33.333 29 48 45s27.334 33.667 38.001 53
s19 40.666 25 63.999s9 49 9 77c0 65.333 -12.333 111.333 -37 138s-62 40 -112 40c-50.667 0 -88.167 -13.333 -112.5 -40s-36.5 -72.667 -36.5 -138c0 -28 3 -53.667 9 -77s14.333 -44.5 25 -63.5s23.334 -36.667 38.001 -53s30.667 -31.5 48 -45.5v-195h-299v135h154l1 3
c-51.333 36 -89.5 79.333 -114.5 130s-37.5 108.334 -37.5 173.001c0 54 7.5 101 22.5 141s36.5 73.333 64.5 100s62.167 46.5 102.5 59.5s85.5 19.5 135.5 19.5z" />
    <glyph glyph-name="partialdiff" unicode="&#x2202;" horiz-adv-x="640" 
d="M315 546c25.333 0 49.1621 -3.66992 71.4951 -11.0029s42.833 -17.666 61.5 -30.999l2 2c-9.33301 40.667 -27.166 70.834 -53.499 90.501s-62.833 29.5 -109.5 29.5c-38 0 -71.167 -4.33301 -99.5 -13s-56.166 -21.667 -83.499 -39l-39 108
c16.667 12 33.834 22.5 51.501 31.5s36.334 16.833 56.001 23.5s41.167 11.667 64.5 15s49 5 77 5c34.667 0 69.334 -6 104.001 -18s66 -31.833 94 -59.5s50.667 -63.834 68 -108.501s26 -99.667 26 -165c0 -61.333 -7 -117.666 -21 -168.999s-35 -95.666 -63 -132.999
s-62.833 -66.333 -104.5 -87s-90.167 -31 -145.5 -31c-80.667 0 -140.334 21.167 -179.001 63.5s-58 102.833 -58 181.5c0 50 6.5 94.5 19.5 133.5s31.667 72 56 99s53.833 47.5 88.5 61.5s73.334 21 116.001 21zM439.996 341.997c0 10.667 -2.16602 21.165 -6.49902 31.498
s-10.666 19.5 -18.999 27.5s-19 14.333 -32 19s-27.833 7 -44.5 7c-44 0 -79 -17.167 -105 -51.5s-39 -87.166 -39 -158.499c0 -36 8.66699 -63 26 -81s42.666 -27 75.999 -27c22.667 0 43 5.83301 61 17.5s33.167 27.834 45.5 48.501s21.666 45.167 27.999 73.5
s9.5 59.5 9.5 93.5z" />
    <glyph glyph-name="Delta" unicode="&#x2206;" horiz-adv-x="742" 
d="M713 0h-685l287 753h111zM343 478l-124 -342h298l-120 342l-25 77h-3z" />
    <glyph glyph-name="product" unicode="&#x220f;" horiz-adv-x="753" 
d="M135 -159v792l-90 9l-3 108h670l-2 -107l-90 -10v-792h-146v781h-192v-781h-147z" />
    <glyph glyph-name="summation" unicode="&#x2211;" horiz-adv-x="697" 
d="M321 31l-53 -58l1 -3h391l-4 -129h-587v86l305 378l-305 349v96h572l3 -132h-365l-1 -2l54 -58l207 -237v-33z" />
    <glyph glyph-name="radical" unicode="&#x221a;" horiz-adv-x="615" 
d="M5 506h190l79 -259l22 -78h3l18 78l142 537h164l-230 -784h-184l-125 365h-78z" />
    <glyph glyph-name="infinity" unicode="&#x221e;" horiz-adv-x="765" 
d="M540 148c-34.667 0 -64.668 5.99902 -90.001 17.999s-47.666 28.667 -66.999 50c-16 -19.333 -36.167 -35.5 -60.5 -48.5s-56.166 -19.5 -95.499 -19.5c-26 0 -50.5 4.33301 -73.5 13s-43 21.334 -60 38.001s-30.333 37.334 -40 62.001s-14.5 52.667 -14.5 84
c0 28.667 3.83301 55 11.5 79s19.334 44.833 35.001 62.5s35 31.334 58 41.001s49.833 14.5 80.5 14.5c35.333 0 65.666 -6 90.999 -18s47.666 -29.333 66.999 -52c16 20 36.167 36.667 60.5 50s56.166 20 95.499 20c26 0 50.5 -4.33301 73.5 -13s43 -21.334 60 -38.001
s30.333 -37.334 40 -62.001s14.5 -52.667 14.5 -84c0 -29.333 -4 -56 -12 -80s-19.667 -44.667 -35 -62s-34.666 -30.833 -57.999 -40.5s-50.333 -14.5 -81 -14.5zM231.999 275.999c12 0 22.667 2.5 32 7.5s17.5 12 24.5 21s13.5 19.167 19.5 30.5s12 23.666 18 36.999
c-11.333 14.667 -24 26.667 -38 36s-31.667 14 -53 14c-22 0 -39 -7 -51 -21s-18 -31.667 -18 -53c0 -23.333 6.5 -41.166 19.5 -53.499s28.5 -18.5 46.5 -18.5zM532.999 412.999c-12 0 -22.665 -2.66602 -31.998 -7.99902s-17.5 -12.333 -24.5 -21s-13.5 -19 -19.5 -31
l-18 -37c11.333 -14 24.166 -25.5 38.499 -34.5s32.166 -13.5 53.499 -13.5c22 0 38.833 7.16699 50.5 21.5s17.5 32.166 17.5 53.499c0 23.333 -6.5 40.833 -19.5 52.5s-28.5 17.5 -46.5 17.5z" />
    <glyph glyph-name="integral" unicode="&#x222b;" horiz-adv-x="329" 
d="M243 38c0 -72 -18.833 -124.169 -56.5 -156.502s-96.834 -48.5 -177.501 -48.5l-4 101c28 0.666992 48.5 8.33398 61.5 23.001s19.5 40 19.5 76v571c0 64.667 18.833 113.334 56.5 146.001s96.834 49 177.501 49l3 -101c-25.333 0 -44.833 -7.5 -58.5 -22.5
s-20.5 -39.167 -20.5 -72.5z" />
    <glyph glyph-name="approxequal" unicode="&#x2248;" 
d="M430 345c-20.667 0 -40.665 2.33008 -59.998 6.99707s-38 9.83398 -56 15.501s-35.667 10.834 -53 15.501s-34.333 7 -51 7c-21.333 0 -41.5 -2.66699 -60.5 -8s-37.5 -12.666 -55.5 -21.999v121c17.333 9.33301 35.666 16.666 54.999 21.999s39.666 8 60.999 8
c20.667 0 40.5 -2.33301 59.5 -7s37.5 -10 55.5 -16s35.667 -11.333 53 -16s34.666 -7 51.999 -7c22 0 42.5 2.83301 61.5 8.5s37.5 13.167 55.5 22.5v-121c-17.333 -9.33301 -35.666 -16.666 -54.999 -21.999s-40 -8 -62 -8zM430.002 142.997
c-20.667 0 -40.665 2.33496 -59.998 7.00195s-38 9.83398 -56 15.501s-35.667 10.834 -53 15.501s-34.333 7 -51 7c-41.333 0 -80 -10 -116 -30v121c17.333 9.33301 35.666 16.666 54.999 21.999s39.666 8 60.999 8c20.667 0 40.5 -2.33301 59.5 -7
s37.5 -9.83398 55.5 -15.501s35.667 -10.834 53 -15.501s34.666 -7 51.999 -7c22 0 42.5 2.66699 61.5 8s37.5 12.666 55.5 21.999v-120c-17.333 -10 -35.666 -17.667 -54.999 -23s-40 -8 -62 -8z" />
    <glyph glyph-name="notequal" unicode="&#x2260;" 
d="M494 561l-35 -72h88v-120h-146l-40 -84h186v-120h-244l-59 -123l-98 49l35 74h-87v120h145l41 84h-186v120h244l58 120z" />
    <glyph glyph-name="lessequal" unicode="&#x2264;" 
d="M279 434l-79 -17v-3l79 -17l270 -64v-146l-462 154v152l461 156v-149zM90 34v125h459v-125h-459z" />
    <glyph glyph-name="greaterequal" unicode="&#x2265;" 
d="M87 333l270 64l80 17v3l-80 17l-270 66l1 149l461 -156v-152l-462 -154v146zM87 34v125h458v-125h-458z" />
    <glyph glyph-name="lozenge" unicode="&#x25ca;" horiz-adv-x="626" 
d="M312 681l290 -339l-290 -338l-289 338zM312 195l128 148l-128 149l-128 -149z" />
    <glyph glyph-name="fi" unicode="&#xfb01;" horiz-adv-x="711" 
d="M253 0l-154.999 -0.000976562v491h-76v115h76v26c0 22.667 4 44.167 12 64.5s20.5 38 37.5 53s38.667 26.833 65 35.5s57.5 13 93.5 13c17.333 0 33.666 -0.833008 48.999 -2.5s28.333 -4.16699 39 -7.5l-4 -102c-16.667 3.33301 -33.667 5 -51 5
c-32 0 -54.333 -5.66699 -67 -17s-19 -26.666 -19 -45.999v-22h376v-606h-158v491h-218v-491zM640.001 737.999c0 -22.667 -7 -39.5 -21 -50.5s-36.667 -16.5 -68 -16.5c-30 0 -52.167 5 -66.5 15s-21.5 27.333 -21.5 52c0 44.667 29.333 67 88 67
c31.333 0 54 -5.83301 68 -17.5s21 -28.167 21 -49.5z" />
    <glyph glyph-name="fl" unicode="&#xfb02;" horiz-adv-x="678" 
d="M447 0l-0.000976562 688.998c-14.667 2 -28.834 3.66699 -42.501 5s-27.167 2 -40.5 2c-21.333 0 -39.166 -1.66699 -53.499 -5s-25.833 -8.16602 -34.5 -14.499s-14.667 -14 -18 -23s-5 -19.167 -5 -30.5v-17h98v-115h-98v-491h-155v491h-76v115h76v23
c0 23.333 4.33301 45.333 13 66s23.334 38.834 44.001 54.501s48 28.167 82 37.5s76.667 14 128 14c22 0 42.667 -0.833008 62 -2.5s38.333 -3.5 57 -5.5s37.667 -4.16699 57 -6.5s40.333 -3.83301 63 -4.5v-782h-157z" />
    </font>
</defs>
</svg>
